<?xml version="1.0" encoding="utf-8"?>
<!-- Generator: Adobe Illustrator 25.2.3, SVG Export Plug-In . SVG Version: 6.00 Build 0)  -->
<svg height="30px" width="30px" version="1.1" id="Layer_1" xmlns="http://www.w3.org/2000/svg" xmlns:xlink="http://www.w3.org/1999/xlink" x="0px" y="0px"
	 viewBox="0 0 29.38 29.29" style="enable-background:new 0 0 29.38 29.29;" xml:space="preserve">
<style type="text/css">
	.st0{fill-rule:evenodd;clip-rule:evenodd;fill:#FF7F15;}
	.st1{fill-rule:evenodd;clip-rule:evenodd;fill:#FFFFFF;}
</style>
    <circle style="fill-rule:evenodd;clip-rule:evenodd;fill:#FF7F15;" cx="10" cy="10" r="9.9"/>
    <g>
        <path style="fill-rule:evenodd;clip-rule:evenodd;fill:#FFFFFF;" d="M17.5,9h-1.7V6.9c0-0.9-0.5-1.3-1.3-1.3h-3.6c-0.3,0-0.5-0.1-0.6-0.3L9.4,4.4C9.2,4.2,9,4.1,8.8,4.1h-4
            C4,4.1,3.5,4.6,3.5,5.5v9.7c0,0.3,0.2,0.5,0.5,0.5h12.4c0.1,0,0.1,0,0.2-0.1l2.1-5.5C18.8,9.4,18.4,9,17.5,9z"/>
        <g>
            <path style="fill-rule:evenodd;clip-rule:evenodd;fill:#FFFFFF;" d="M3.7,16.2l0.6-1.4l2-5.1c0.3-0.7,1.1-1.2,2-1.2h9.3c0.9,0,1.3,0.3,1.5,0.6c0.1,0.2,0.3,0.6,0,1.2L17,15.9
                L16.9,16c-0.2,0.2-0.3,0.2-0.6,0.2H3.7z"/>
            <path style="fill-rule:evenodd;clip-rule:evenodd;fill:#FF7F15;" d="M17.5,9c0.9,0,1.4,0.4,1.1,1.1l-2.1,5.5c-0.1,0.1-0.1,0.1-0.2,0.1H4.4L4.7,15l2-5.1C6.9,9.4,7.5,9,8.2,9
                h6.9h0.7H17.5 M17.5,8h-1.7h-0.7H8.2C7.2,8,6.2,8.6,5.8,9.5l-2,5.1l-0.3,0.7l-0.6,1.4h1.5h11.9c0.4,0,0.7-0.2,0.9-0.4l0.2-0.2
                l0.1-0.2l2.1-5.5c0.3-0.8,0.1-1.3-0.1-1.6C19.1,8.3,18.4,8,17.5,8L17.5,8z"/>
        </g>
    </g>
</svg>