<svg width="25" height="25" viewBox="0 0 25 25" fill="none" xmlns="http://www.w3.org/2000/svg">
<path d="M20.9144 24.7191H3.89105C1.75097 24.7191 0 23.0337 0 20.9738V3.74532C0 1.68539 1.75097 0 3.89105 0H20.8171C22.9572 0 24.7082 1.68539 24.7082 3.74532V20.9738C24.8055 23.0337 23.0545 24.7191 20.9144 24.7191Z" fill="#42779A"/>
<path d="M12.4516 13.5768C12.4207 13.5768 12.3901 13.5757 12.3598 13.5737C12.0567 13.5529 11.7867 13.4299 11.6075 13.2324L7.29598 9.08239C6.80959 8.70786 6.71232 8.05243 7.10142 7.58426C7.49053 7.1161 8.17146 7.02246 8.65784 7.397C8.71796 7.397 8.74093 7.43276 8.77266 7.48219C8.79228 7.51273 8.81524 7.5485 8.8524 7.58426L11.3816 10.0187V3.74533C11.2843 3.27717 11.7707 2.809 12.3544 2.71537C12.938 2.62174 13.5217 2.99627 13.619 3.46444V9.92507L16.0508 7.58426C16.5372 7.20973 17.2182 7.20973 17.6073 7.67789C17.9964 8.05243 17.9964 8.70786 17.6073 9.08239L13.4131 13.1195C13.3059 13.2615 13.1653 13.3754 13.0023 13.454C12.8636 13.5229 12.7051 13.5627 12.5435 13.5737C12.5131 13.5757 12.4825 13.5768 12.4516 13.5768Z" fill="white"/>
<path d="M7.4627 21.9007C6.8387 21.9007 6.3027 21.7807 5.8547 21.5407C5.4067 21.3007 5.0627 20.962 4.8227 20.5247C4.58804 20.0874 4.4707 19.5754 4.4707 18.9887C4.4707 18.5514 4.53737 18.154 4.6707 17.7967C4.80937 17.4394 5.0067 17.1327 5.2627 16.8767C5.52404 16.6207 5.8387 16.4261 6.2067 16.2927C6.58004 16.154 6.9987 16.0847 7.4627 16.0847C7.70804 16.0847 7.96137 16.114 8.2227 16.1727C8.48937 16.226 8.72404 16.3087 8.9267 16.4207C9.07604 16.5007 9.18004 16.6021 9.2387 16.7247C9.29737 16.8474 9.31604 16.9727 9.2947 17.1007C9.2787 17.2287 9.23337 17.3434 9.1587 17.4447C9.08404 17.5461 8.98804 17.6154 8.8707 17.6527C8.75337 17.6847 8.62537 17.666 8.4867 17.5967C8.3267 17.5221 8.1667 17.466 8.0067 17.4287C7.85204 17.3861 7.68937 17.3647 7.5187 17.3647C7.18804 17.3647 6.9107 17.4287 6.6867 17.5567C6.46804 17.6794 6.3027 17.8607 6.1907 18.1007C6.0787 18.3407 6.0227 18.6367 6.0227 18.9887C6.0227 19.3407 6.0787 19.6394 6.1907 19.8847C6.3027 20.1247 6.46804 20.3087 6.6867 20.4367C6.9107 20.5594 7.18804 20.6207 7.5187 20.6207C7.65737 20.6207 7.8067 20.6047 7.9667 20.5727C8.1267 20.5354 8.28404 20.4794 8.4387 20.4047C8.5987 20.3354 8.74004 20.3167 8.8627 20.3487C8.9907 20.3807 9.09204 20.4447 9.1667 20.5407C9.2467 20.6367 9.29737 20.7487 9.3187 20.8767C9.34004 20.9994 9.32137 21.1221 9.2627 21.2447C9.20937 21.3674 9.11337 21.4661 8.9747 21.5407C8.78804 21.6527 8.55604 21.7407 8.2787 21.8047C8.0067 21.8687 7.7347 21.9007 7.4627 21.9007Z" fill="white"/>
<path d="M12.0779 21.9007C11.8646 21.9007 11.6406 21.8847 11.4059 21.8527C11.1766 21.826 10.9579 21.7834 10.7499 21.7247C10.5419 21.666 10.3552 21.5967 10.1899 21.5167C10.0459 21.4474 9.94456 21.3567 9.88589 21.2447C9.82722 21.1274 9.80589 21.0047 9.82189 20.8767C9.83789 20.7487 9.88322 20.6367 9.95789 20.5407C10.0326 20.4394 10.1312 20.3727 10.2539 20.3407C10.3766 20.3034 10.5152 20.3194 10.6699 20.3887C10.8726 20.4847 11.1019 20.5594 11.3579 20.6127C11.6139 20.666 11.8539 20.6927 12.0779 20.6927C12.4299 20.6927 12.6752 20.6474 12.8139 20.5567C12.9579 20.4607 13.0299 20.3434 13.0299 20.2047C13.0299 20.0821 12.9792 19.9834 12.8779 19.9087C12.7819 19.834 12.6086 19.7701 12.3579 19.7167L11.4219 19.5167C10.9099 19.41 10.5286 19.2234 10.2779 18.9567C10.0272 18.6901 9.90189 18.3461 9.90189 17.9247C9.90189 17.6474 9.95789 17.3967 10.0699 17.1727C10.1872 16.9434 10.3499 16.7487 10.5579 16.5887C10.7712 16.4287 11.0219 16.306 11.3099 16.2207C11.6032 16.1301 11.9286 16.0847 12.2859 16.0847C12.5632 16.0847 12.8432 16.1167 13.1259 16.1807C13.4139 16.2394 13.6619 16.3301 13.8699 16.4527C13.9926 16.5167 14.0806 16.6047 14.1339 16.7167C14.1872 16.8287 14.2086 16.946 14.1979 17.0687C14.1872 17.1861 14.1446 17.2901 14.0699 17.3807C14.0006 17.4714 13.9046 17.5327 13.7819 17.5647C13.6646 17.5914 13.5232 17.57 13.3579 17.5007C13.2032 17.4314 13.0272 17.3807 12.8299 17.3487C12.6379 17.3114 12.4512 17.2927 12.2699 17.2927C12.0726 17.2927 11.9046 17.3167 11.7659 17.3647C11.6272 17.4074 11.5206 17.4714 11.4459 17.5567C11.3766 17.642 11.3419 17.7407 11.3419 17.8527C11.3419 17.9647 11.3872 18.0607 11.4779 18.1407C11.5739 18.2154 11.7472 18.2794 11.9979 18.3327L12.9259 18.5327C13.4432 18.6447 13.8299 18.8287 14.0859 19.0847C14.3419 19.3407 14.4699 19.674 14.4699 20.0847C14.4699 20.3621 14.4139 20.6127 14.3019 20.8367C14.1899 21.0607 14.0299 21.2527 13.8219 21.4127C13.6139 21.5674 13.3632 21.6874 13.0699 21.7727C12.7766 21.858 12.4459 21.9007 12.0779 21.9007Z" fill="white"/>
<path d="M17.0515 21.7567C17.1795 21.8421 17.3448 21.8847 17.5475 21.8847C17.7501 21.8847 17.9128 21.8421 18.0355 21.7567C18.1581 21.6714 18.2595 21.5354 18.3395 21.3487L20.2835 17.0767C20.3688 16.89 20.3955 16.722 20.3635 16.5727C20.3368 16.4234 20.2675 16.3087 20.1555 16.2287C20.0435 16.1434 19.9048 16.1007 19.7395 16.1007C19.5368 16.1007 19.3795 16.1487 19.2675 16.2447C19.1555 16.3354 19.0595 16.4741 18.9795 16.6607L17.5712 19.9259L16.1635 16.6687C16.0835 16.482 15.9875 16.3407 15.8755 16.2447C15.7688 16.1487 15.6061 16.1007 15.3875 16.1007C15.2115 16.1007 15.0648 16.1434 14.9475 16.2287C14.8301 16.3087 14.7555 16.4234 14.7235 16.5727C14.6915 16.722 14.7181 16.89 14.8035 17.0767L16.7395 21.3487C16.8248 21.5354 16.9288 21.6714 17.0515 21.7567Z" fill="white"/>
</svg>
