<?xml version="1.0" encoding="utf-8"?>
<!-- Generator: Adobe Illustrator 25.1.0, SVG Export Plug-In . SVG Version: 6.00 Build 0)  -->
<svg version="1.1" id="Layer_1" xmlns="http://www.w3.org/2000/svg" xmlns:xlink="http://www.w3.org/1999/xlink" x="0px" y="0px"
	 viewBox="0 0 17 17" style="enable-background:new 0 0 17 17;" xml:space="preserve">
<style type="text/css">
	.st0{fill:#FFFFFF;}
</style>
<circle cx="8.5" cy="8.5" r="8.5"/>
<path class="st0" d="M8.5,2.57c-1.88,0-3.42,1.54-3.42,3.42c-0.01,0.38,0.3,0.69,0.67,0.69c0.38,0.01,0.69-0.3,0.69-0.67
	c0-0.01,0-0.01,0-0.02c0-1.14,0.91-2.05,2.05-2.05s2.05,0.91,2.05,2.05c0,0.71-0.29,1.2-0.76,1.69C9.33,8.17,8.68,8.62,8.07,9.11
	C7.91,9.24,7.82,9.43,7.82,9.64v0.91c-0.01,0.38,0.3,0.69,0.67,0.69c0.38,0.01,0.69-0.3,0.69-0.67c0-0.01,0-0.01,0-0.02V9.98
	c0.5-0.38,1.08-0.8,1.61-1.35c0.61-0.65,1.13-1.52,1.13-2.63C11.92,4.11,10.38,2.57,8.5,2.57z"/>
<circle class="st0" cx="8.5" cy="13.52" r="0.91"/>
</svg>
