<?xml version="1.0" encoding="utf-8"?>
<!-- Generator: Adobe Illustrator 25.1.0, SVG Export Plug-In . SVG Version: 6.00 Build 0)  -->
<svg version="1.1" id="Layer_1" xmlns="http://www.w3.org/2000/svg" xmlns:xlink="http://www.w3.org/1999/xlink" x="0px" y="0px"
	 viewBox="0 0 88 91" style="enable-background:new 0 0 88 91;" xml:space="preserve">
<style type="text/css">
	.st0{fill:#39C0F0;}
	.st1{fill:#FFFFFF;}
	.st2{fill:#519CCC;}
	.st3{fill:none;stroke:#BB2040;stroke-width:3;stroke-miterlimit:10;}
	.st4{fill:#FFFFFF;stroke:#BB2040;stroke-width:3;stroke-miterlimit:10;}
	.st5{fill:#0D3556;}
</style>
<g>
	<circle class="st0" cx="44.02" cy="47.19" r="42.1"/>
	<g>
		<polygon class="st1" points="20.23,27.07 20.23,58.31 43.9,65.64 67.94,57.94 67.94,26.23 43.66,34.52 		"/>
		<path d="M44.02,66.83l-25.24-7.81V25.02l25.24,7.81l25.24-7.81v34.01L44.02,66.83z M21.19,57.23l22.83,7.09l22.83-7.09V28.26
			l-22.83,7.09l-22.83-7.09C21.19,28.26,21.19,57.23,21.19,57.23z"/>
		<path d="M74.05,68.28H13.99V36.32h7.2v20.91l22.83,7.09l22.83-7.09V36.32h7.2V68.28z M47.03,65.87h24.51V38.73h-2.41v20.3
			L47.03,65.87z M16.38,65.87H40.9l-22.1-6.84v-20.3h-2.42V65.87z"/>
		<rect x="42.83" y="34.04" width="2.41" height="31.48"/>
		<path class="st2" d="M62.65,49.42l-14.29,5.04c-0.36,0.23-0.84,0.12-1.09-0.36c-0.12-0.12-0.12-0.23-0.12-0.48l0,0
			c0-0.71,0.48-1.32,1.19-1.57l14.29-5.04c0.36-0.23,0.84-0.12,1.09,0.36c0.12,0.12,0.12,0.23,0.12,0.48l0,0
			C63.73,48.46,63.36,49.17,62.65,49.42z"/>
		<path class="st2" d="M62.65,40.28l-6.01,2.16c-0.36,0.23-0.84,0.12-1.09-0.36c-0.12-0.12-0.12-0.23-0.12-0.48l0,0
			c0-0.71,0.48-1.32,1.19-1.68l6.01-2.16c0.36-0.23,0.84-0.12,1.09,0.36c0.12,0.12,0.12,0.23,0.12,0.48l0,0
			C63.73,39.32,63.36,40.05,62.65,40.28z"/>
		<path class="st2" d="M52.91,43.65l-4.56,1.57c-0.36,0.23-0.84,0.12-1.09-0.36c-0.12-0.12-0.12-0.23-0.12-0.48l0,0
			c0-0.71,0.48-1.32,1.19-1.57l4.56-1.57c0.36-0.23,0.84-0.12,1.09,0.36c0.12,0.12,0.12,0.23,0.12,0.48l0,0
			C54,42.81,53.52,43.41,52.91,43.65z"/>
		<path class="st2" d="M58.8,46.18l-6.61,2.28c-0.36,0.23-0.84,0.12-1.09-0.36c-0.12-0.12-0.12-0.23-0.12-0.48l0,0
			c0-0.71,0.48-1.32,1.19-1.68l6.61-2.28c0.36-0.23,0.84-0.12,1.09,0.36c0.12,0.12,0.12,0.23,0.12,0.48l0,0
			C59.88,45.32,59.4,45.93,58.8,46.18z"/>
		<path class="st2" d="M25.04,40.05l14.29,5.04c0.36,0.23,0.84,0.12,1.09-0.36c0.12-0.12,0.12-0.23,0.12-0.48l0,0
			c0-0.71-0.48-1.32-1.19-1.68l-14.31-5.06c-0.36-0.23-0.84-0.12-1.09,0.36c-0.12,0.12-0.12,0.23-0.12,0.48l0,0
			C23.83,39.21,24.31,39.8,25.04,40.05z"/>
		<path class="st2" d="M25.04,44.73l6.01,2.16c0.36,0.23,0.84,0.12,1.09-0.36c0.12-0.12,0.12-0.23,0.12-0.48l0,0
			c0-0.71-0.48-1.32-1.19-1.57l-6.02-2.16c-0.36-0.23-0.84-0.12-1.09,0.36c-0.12,0.12-0.12,0.23-0.12,0.48l0,0
			C23.83,43.77,24.31,44.48,25.04,44.73z"/>
		<path class="st2" d="M34.77,48.1l4.56,1.57c0.36,0.23,0.84,0.12,1.09-0.36c0.12-0.12,0.12-0.23,0.12-0.48l0,0
			c0-0.71-0.48-1.32-1.19-1.57l-4.56-1.57c-0.36-0.23-0.84-0.12-1.09,0.36c-0.12,0.12-0.12,0.23-0.12,0.48l0,0
			C33.56,47.25,34.04,47.85,34.77,48.1z"/>
		<path class="st2" d="M28.89,50.74l6.61,2.28c0.36,0.23,0.84,0.12,1.09-0.36c0.12-0.12,0.12-0.23,0.12-0.48l0,0
			c0-0.71-0.48-1.32-1.19-1.57l-6.61-2.28c-0.36-0.23-0.84-0.12-1.09,0.36c-0.12,0.12-0.12,0.23-0.12,0.48l0,0
			C27.68,49.78,28.16,50.49,28.89,50.74z"/>
	</g>
</g>
<circle class="st3" cx="43.97" cy="47.17" r="42.1"/>
<circle class="st4" cx="21.01" cy="17.68" r="15.71"/>
<g>
	<polygon class="st5" points="28.95,11.3 20.61,11.3 19.68,9.45 12.26,9.45 12.26,13.16 28.95,13.16 	"/>
	<path class="st5" d="M26.16,16.87c0.99,0,1.94,0.22,2.78,0.63v-2.48H12.26v9.27h7.49c-0.05-0.31-0.07-0.61-0.07-0.92
		C19.68,19.78,22.59,16.87,26.16,16.87z"/>
	<path class="st5" d="M29.44,20.08c-1.81-1.81-4.75-1.81-6.56,0c-1.81,1.81-1.81,4.74,0,6.56c1.81,1.81,4.74,1.81,6.56,0
		C31.25,24.82,31.25,21.89,29.44,20.08z M24.2,25.32c-0.85-0.85-1.03-2.13-0.54-3.16l3.7,3.7C26.33,26.35,25.05,26.17,24.2,25.32z
		 M28.67,24.55l-3.7-3.7c1.03-0.49,2.31-0.32,3.16,0.54C28.99,22.24,29.16,23.52,28.67,24.55z"/>
</g>
</svg>
