<?xml version="1.0" encoding="utf-8"?>
<!-- Generator: Adobe Illustrator 25.1.0, SVG Export Plug-In . SVG Version: 6.00 Build 0)  -->
<svg version="1.1" id="Layer_1" xmlns="http://www.w3.org/2000/svg" xmlns:xlink="http://www.w3.org/1999/xlink" x="0px" y="0px"
	 viewBox="0 0 19 19" style="enable-background:new 0 0 19 19;" xml:space="preserve">
<style type="text/css">
	.st0{fill:#0D3556;}
</style>
<g>
	<polygon class="st0" points="16.99,2.04 8.55,2.04 7.61,0.17 0.11,0.17 0.11,3.92 16.99,3.92 	"/>
	<path class="st0" d="M14.18,7.67c1.01,0,1.96,0.23,2.81,0.64V5.79H0.11v9.38h7.58c-0.06-0.31-0.08-0.62-0.08-0.94
		C7.61,10.62,10.56,7.67,14.18,7.67z"/>
	<path class="st0" d="M17.49,10.92c-1.84-1.84-4.8-1.83-6.63,0c-1.84,1.84-1.84,4.8,0,6.63c1.83,1.83,4.79,1.84,6.63,0
		C19.32,15.72,19.32,12.75,17.49,10.92z M12.19,16.23c-0.86-0.86-1.04-2.16-0.55-3.2l3.74,3.74C14.35,17.27,13.05,17.09,12.19,16.23
		z M16.71,15.45l-3.74-3.74c1.04-0.5,2.34-0.32,3.2,0.55C17.03,13.11,17.21,14.4,16.71,15.45z"/>
</g>
</svg>
