<?xml version="1.0" encoding="utf-8"?>
<!-- Generator: Adobe Illustrator 26.4.1, SVG Export Plug-In . SVG Version: 6.00 Build 0)  -->
<svg version="1.1" id="Layer_1" xmlns="http://www.w3.org/2000/svg" xmlns:xlink="http://www.w3.org/1999/xlink" x="0px" y="0px"
	 viewBox="0 0 25.8 24.4" style="enable-background:new 0 0 25.8 24.4;" xml:space="preserve">
<style type="text/css">
	.st0{fill:#42779A;}
	.st1{fill:#0D233F;}
	.st2{fill:#135560;}
	.st3{fill:#721E63;}
	.st4{fill:#FFB11D;}
	.st5{fill:#DADADA;}
	.st6{fill:#FFFFFF;}
</style>
<rect x="-33.5" y="1.4" class="st0" width="23.1" height="22"/>
<g>
	<g>
		<path class="st1" d="M5.4,10.6L3.8,9.7c1-1.7,2.5-3.2,4.4-4.3c2-1.2,4.4-1.8,6.9-1.8c0,0,0,0,0.1,0l0,1.9c0,0,0,0,0,0
			c-2.2,0-4.2,0.5-6,1.5C7.5,8,6.2,9.2,5.4,10.6z"/>
	</g>
	<g>
		<path class="st2" d="M10.3,10.3L9.4,8.7c3.2-1.8,7.1-2.1,10.6-0.9l-0.6,1.7C16.3,8.5,13,8.8,10.3,10.3z"/>
	</g>
	<g>
		<path class="st3" d="M20.7,14.4c-1.1-1.3-3.4-2.6-6.3-2.2l-0.2-1.8c1.6-0.2,3.1,0,4.5,0.6c1.3,0.5,2.5,1.3,3.3,2.3L20.7,14.4z"/>
	</g>
	<g>
		<path class="st4" d="M19.6,18.7c-0.3-1.5-1.6-2.8-3.2-3.5l0.7-1.7c2.2,0.9,3.8,2.7,4.3,4.8L19.6,18.7z"/>
	</g>
	<g>
		<path class="st5" d="M16.8,20.9c0-0.9-0.4-1.7-1.2-2.3l1.2-1.4c1.2,1,1.8,2.3,1.8,3.7L16.8,20.9z"/>
	</g>
</g>
<g>
	<g>
		<path class="st1" d="M-30.5,10.4l-1.8-1c1.1-1.9,2.8-3.6,4.9-4.8c2.3-1.3,5-2,7.8-2c0,0,0,0,0.1,0l0,2.1c0,0,0,0-0.1,0
			c-2.4,0-4.8,0.6-6.8,1.7C-28.2,7.4-29.6,8.8-30.5,10.4z"/>
	</g>
	<g>
		<path class="st2" d="M-25.1,10l-1-1.8c3.6-2,8-2.4,12-1l-0.7,2C-18.2,8-22,8.3-25.1,10z"/>
	</g>
	<g>
		<path class="st3" d="M-13.3,14.7c-1.3-1.5-3.8-2.9-7.1-2.5l-0.2-2.1c1.8-0.2,3.5,0,5.1,0.7c1.5,0.6,2.8,1.5,3.7,2.6L-13.3,14.7z"
			/>
	</g>
	<g>
		<path class="st4" d="M-14.5,19.5c-0.4-1.6-1.8-3.1-3.6-3.9l0.8-1.9c2.5,1,4.3,3.1,4.9,5.4L-14.5,19.5z"/>
	</g>
	<g>
		<path class="st6" d="M-17.7,22c0-1-0.5-1.9-1.3-2.6l1.4-1.6c1.3,1.1,2.1,2.6,2.1,4.2L-17.7,22z"/>
	</g>
</g>
<g>
	<path class="st0" d="M69.1,1.5c5.8,0,10.6,4.8,10.6,10.6s-4.8,10.6-10.6,10.6s-10.6-4.8-10.6-10.6S63.2,1.5,69.1,1.5 M69.1-0.5
		c-7,0-12.6,5.6-12.6,12.6s5.6,12.6,12.6,12.6S81.7,19,81.7,12.1S76-0.5,69.1-0.5L69.1-0.5z"/>
</g>
<g>
	<g>
		<path class="st1" d="M62.4,10.1L61,9.3c0.8-1.5,2.2-2.8,3.8-3.8c1.8-1,3.9-1.6,6.1-1.6c0,0,0,0,0,0l0,1.6c0,0,0,0,0,0
			c-1.9,0-3.7,0.5-5.3,1.3C64.3,7.8,63.1,8.9,62.4,10.1z"/>
	</g>
	<g>
		<path class="st2" d="M66.7,9.8l-0.8-1.4c2.8-1.6,6.2-1.9,9.3-0.7l-0.6,1.5C72,8.2,69.1,8.4,66.7,9.8z"/>
	</g>
	<g>
		<path class="st3" d="M75.9,13.4c-1-1.1-3-2.3-5.5-2l-0.2-1.6c1.4-0.1,2.8,0,4,0.5c1.2,0.4,2.2,1.2,2.9,2L75.9,13.4z"/>
	</g>
	<g>
		<path class="st4" d="M74.9,17.2c-0.3-1.3-1.4-2.5-2.8-3.1l0.6-1.5c2,0.8,3.4,2.4,3.8,4.2L74.9,17.2z"/>
	</g>
	<g>
		<path class="st6" d="M72.4,19.1c0-0.8-0.4-1.5-1-2.1l1.1-1.2c1,0.9,1.6,2.1,1.6,3.3L72.4,19.1z"/>
	</g>
</g>
</svg>
