<?xml version="1.0" encoding="utf-8"?>
<!-- Generator: Adobe Illustrator 25.2.3, SVG Export Plug-In . SVG Version: 6.00 Build 0)  -->
<svg version="1.1" id="Layer_1" xmlns="http://www.w3.org/2000/svg" xmlns:xlink="http://www.w3.org/1999/xlink" x="0px" y="0px"
	 viewBox="0 0 20 20" style="enable-background:new 0 0 20 20;" xml:space="preserve">
<style type="text/css">
	.st0{fill:#0C3656;}
	.st1{fill:#3EBFEF;}
	.st2{fill:#FFFFFF;}
	.st3{fill:#010101;}
	.st4{fill:#519CCC;}
	.st5{fill:#BB2241;}
	.st6{fill:#F3A933;}
</style>
<g>
	<path class="st0" d="M10.01,0.03c-5.49,0-9.96,4.47-9.96,9.96s4.47,9.96,9.96,9.96s9.96-4.47,9.96-9.96S15.5,0.03,10.01,0.03z
		 M16.85,9.99c0,3.77-3.07,6.84-6.84,6.84s-6.84-3.07-6.84-6.84s3.07-6.84,6.84-6.84S16.85,6.22,16.85,9.99z"/>
	<path class="st0" d="M10.01,3.76c-0.86,0-1.56,0.7-1.56,1.56v4.03l-2.31,2.31c-0.32,0.27-0.51,0.65-0.54,1.06
		c-0.03,0.42,0.1,0.82,0.37,1.14c0.31,0.36,0.75,0.54,1.18,0.54c0.36,0,0.72-0.12,1.02-0.38l2.93-2.93c0.3-0.29,0.46-0.68,0.47-1.1
		V5.32C11.57,4.46,10.87,3.76,10.01,3.76z"/>
</g>
</svg>
