<?xml version="1.0" encoding="utf-8"?>
<!-- Generator: Adobe Illustrator 25.2.3, SVG Export Plug-In . SVG Version: 6.00 Build 0)  -->
<svg version="1.1" id="Layer_1" xmlns="http://www.w3.org/2000/svg" xmlns:xlink="http://www.w3.org/1999/xlink" x="0px" y="0px"
	 viewBox="0 0 17.2 17.2" style="enable-background:new 0 0 17.2 17.2;" xml:space="preserve">
<style type="text/css">
	.st0{fill:#0C3656;}
	.st1{fill:#3EBFEF;}
	.st2{fill:#FFFFFF;}
	.st3{fill:#010101;}
	.st4{fill:#519CCC;}
	.st5{fill:#BB2241;}
	.st6{fill:#F3A933;}
</style>
<g>
	<path class="st0" d="M8.6,0.09c-4.69,0-8.5,3.81-8.5,8.5s3.81,8.5,8.5,8.5s8.5-3.81,8.5-8.5S13.29,0.09,8.6,0.09z M14.44,8.59
		c0,3.22-2.62,5.84-5.84,5.84s-5.84-2.62-5.84-5.84S5.38,2.75,8.6,2.75S14.44,5.37,14.44,8.59z"/>
	<path class="st0" d="M8.6,3.27c-0.73,0-1.33,0.6-1.33,1.33v3.44L5.3,10.01c-0.27,0.23-0.43,0.55-0.46,0.91
		c-0.03,0.35,0.09,0.7,0.32,0.97c0.26,0.31,0.64,0.46,1.01,0.46c0.31,0,0.61-0.1,0.87-0.32l2.5-2.5c0.25-0.25,0.4-0.58,0.4-0.94V4.6
		C9.93,3.87,9.33,3.27,8.6,3.27z"/>
</g>
</svg>
