<?xml version="1.0" encoding="utf-8"?>
<!-- Generator: Adobe Illustrator 25.2.3, SVG Export Plug-In . SVG Version: 6.00 Build 0)  -->
<svg version="1.1" id="Layer_1" xmlns="http://www.w3.org/2000/svg" xmlns:xlink="http://www.w3.org/1999/xlink" x="0px" y="0px"
	 viewBox="0 0 87.51 91.15" style="enable-background:new 0 0 87.51 91.15;" xml:space="preserve">
<style type="text/css">
	.st0{fill:#0C3656;}
	.st1{fill:#3EBFEF;}
	.st2{fill:#FFFFFF;}
	.st3{fill:#010101;}
	.st4{fill:#519CCC;}
	.st5{fill:#BB2241;}
	.st6{fill:#F3A933;}
</style>
<g>
	<g>
		<g>
			<circle class="st1" cx="43.37" cy="47.1" r="42.1"/>
		</g>
		<g>
			<g>
				<polygon class="st2" points="19.57,26.97 19.57,58.22 43.24,65.54 67.29,57.84 67.29,26.14 43.01,34.42 				"/>
			</g>
			<g>
				<path class="st3" d="M43.37,66.74l-25.24-7.81V24.92l25.24,7.81l25.24-7.81v34.01L43.37,66.74z M20.54,57.13l22.83,7.09
					l22.83-7.09V28.17l-22.83,7.09l-22.83-7.09L20.54,57.13z"/>
			</g>
			<g>
				<path class="st3" d="M73.4,68.18H13.34V36.22h7.2v20.91l22.83,7.09l22.83-7.09V36.22h7.2V68.18z M46.38,65.77h24.51V38.63h-2.41
					v20.3L46.38,65.77z M15.72,65.77h24.52l-22.1-6.84v-20.3h-2.42V65.77z"/>
			</g>
			<g>
				<rect x="42.17" y="33.94" class="st3" width="2.41" height="31.48"/>
			</g>
			<g>
				<path class="st4" d="M61.99,49.32L47.7,54.37c-0.36,0.23-0.84,0.12-1.09-0.36c-0.12-0.12-0.12-0.23-0.12-0.48l0,0
					c0-0.71,0.48-1.32,1.19-1.57l14.29-5.04c0.36-0.23,0.84-0.12,1.09,0.36c0.12,0.12,0.12,0.23,0.12,0.48l0,0
					C63.08,48.36,62.71,49.07,61.99,49.32z"/>
			</g>
			<g>
				<path class="st4" d="M61.99,40.18l-6.01,2.16c-0.36,0.23-0.84,0.12-1.09-0.36c-0.12-0.12-0.12-0.23-0.12-0.48l0,0
					c0-0.71,0.48-1.32,1.19-1.68l6.01-2.16c0.36-0.23,0.84-0.12,1.09,0.36c0.12,0.12,0.12,0.23,0.12,0.48l0,0
					C63.08,39.22,62.71,39.95,61.99,40.18z"/>
			</g>
			<g>
				<path class="st4" d="M52.26,43.55l-4.56,1.57c-0.36,0.23-0.84,0.12-1.09-0.36c-0.12-0.12-0.12-0.23-0.12-0.48l0,0
					c0-0.71,0.48-1.32,1.19-1.57l4.56-1.57c0.36-0.23,0.84-0.12,1.09,0.36c0.12,0.12,0.12,0.23,0.12,0.48l0,0
					C53.35,42.71,52.87,43.32,52.26,43.55z"/>
			</g>
			<g>
				<path class="st4" d="M58.14,46.08l-6.61,2.28c-0.36,0.23-0.84,0.12-1.09-0.36c-0.12-0.12-0.12-0.23-0.12-0.48l0,0
					c0-0.71,0.48-1.32,1.19-1.68l6.61-2.28c0.36-0.23,0.84-0.12,1.09,0.36c0.12,0.12,0.12,0.23,0.12,0.48l0,0
					C59.23,45.22,58.75,45.83,58.14,46.08z"/>
			</g>
			<g>
				<path class="st4" d="M24.39,39.95l14.29,5.04c0.36,0.23,0.84,0.12,1.09-0.36c0.12-0.12,0.12-0.23,0.12-0.48l0,0
					c0-0.71-0.48-1.32-1.19-1.68l-14.31-5.06c-0.36-0.23-0.84-0.12-1.09,0.36c-0.12,0.12-0.12,0.23-0.12,0.48l0,0
					C23.17,39.11,23.65,39.7,24.39,39.95z"/>
			</g>
			<g>
				<path class="st4" d="M24.39,44.64l6.01,2.16c0.36,0.23,0.84,0.12,1.09-0.36c0.12-0.12,0.12-0.23,0.12-0.48l0,0
					c0-0.71-0.48-1.32-1.19-1.57l-6.02-2.16c-0.36-0.23-0.84-0.12-1.09,0.36c-0.12,0.12-0.12,0.23-0.12,0.48l0,0
					C23.17,43.67,23.65,44.39,24.39,44.64z"/>
			</g>
			<g>
				<path class="st4" d="M34.12,48l4.56,1.57c0.36,0.23,0.84,0.12,1.09-0.36c0.12-0.12,0.12-0.23,0.12-0.48l0,0
					c0-0.71-0.48-1.32-1.19-1.57l-4.56-1.57c-0.36-0.23-0.84-0.12-1.09,0.36c-0.12,0.12-0.12,0.23-0.12,0.48l0,0
					C32.9,47.15,33.39,47.75,34.12,48z"/>
			</g>
			<g>
				<path class="st4" d="M28.24,50.64l6.61,2.28c0.36,0.23,0.84,0.12,1.09-0.36c0.12-0.12,0.12-0.23,0.12-0.48l0,0
					c0-0.71-0.48-1.32-1.19-1.57l-6.61-2.28c-0.36-0.23-0.84-0.12-1.09,0.36c-0.12,0.12-0.12,0.23-0.12,0.48l0,0
					C27.02,49.68,27.5,50.39,28.24,50.64z"/>
			</g>
		</g>
	</g>
	<g>
		<circle class="st2" cx="20.36" cy="17.58" r="15.71"/>
		<path class="st5" d="M20.36,34.79c-9.49,0-17.21-7.72-17.21-17.21S10.87,0.37,20.36,0.37s17.21,7.72,17.21,17.21
			S29.85,34.79,20.36,34.79z M20.36,3.37c-7.83,0-14.21,6.37-14.21,14.21s6.38,14.21,14.21,14.21s14.21-6.37,14.21-14.21
			S28.2,3.37,20.36,3.37z"/>
	</g>
	<g>
		<g>
			<polygon class="st0" points="28.29,11.21 19.95,11.21 19.02,9.35 11.61,9.35 11.61,13.06 28.29,13.06 			"/>
		</g>
		<g>
			<path class="st0" d="M25.51,16.77c0.99,0,1.94,0.22,2.78,0.63v-2.48H11.61v9.27h7.49c-0.05-0.31-0.07-0.61-0.07-0.92
				C19.02,19.68,21.94,16.77,25.51,16.77z"/>
		</g>
		<g>
			<path class="st0" d="M28.79,19.98c-1.81-1.81-4.75-1.81-6.56,0c-1.81,1.81-1.81,4.74,0,6.56c1.81,1.81,4.74,1.81,6.56,0
				C30.6,24.73,30.6,21.79,28.79,19.98z M23.55,25.23c-0.85-0.85-1.03-2.13-0.54-3.16l3.7,3.7C25.68,26.25,24.4,26.08,23.55,25.23z
				 M28.02,24.45l-3.7-3.7c1.03-0.49,2.31-0.32,3.16,0.54C28.33,22.14,28.51,23.42,28.02,24.45z"/>
		</g>
	</g>
	<g>
		<path class="st6" d="M43.76,90.89c-24.04,0-43.6-19.56-43.6-43.6s19.56-43.6,43.6-43.6s43.6,19.56,43.6,43.6
			S67.8,90.89,43.76,90.89z M43.76,6.69c-22.39,0-40.6,18.21-40.6,40.6s18.21,40.6,40.6,40.6s40.6-18.21,40.6-40.6
			S66.14,6.69,43.76,6.69z"/>
	</g>
	<g>
		<circle class="st2" cx="20.5" cy="17.65" r="15.82"/>
		<path class="st6" d="M20.5,34.97c-9.55,0-17.32-7.77-17.32-17.32S10.95,0.32,20.5,0.32s17.32,7.77,17.32,17.32
			S30.05,34.97,20.5,34.97z M20.5,3.32c-7.9,0-14.32,6.43-14.32,14.32S12.6,31.97,20.5,31.97s14.32-6.43,14.32-14.32
			S28.4,3.32,20.5,3.32z"/>
	</g>
	<g>
		<g>
			<path class="st0" d="M20.5,7.68c-5.49,0-9.96,4.47-9.96,9.96s4.47,9.96,9.96,9.96s9.96-4.47,9.96-9.96S25.99,7.68,20.5,7.68z
				 M27.34,17.65c0,3.77-3.07,6.84-6.84,6.84s-6.84-3.07-6.84-6.84s3.07-6.84,6.84-6.84S27.34,13.87,27.34,17.65z"/>
		</g>
		<g>
			<path class="st0" d="M20.5,11.42c-0.86,0-1.56,0.7-1.56,1.56v4.03l-2.31,2.31c-0.32,0.27-0.51,0.65-0.54,1.06
				c-0.03,0.42,0.1,0.82,0.37,1.14c0.31,0.36,0.75,0.54,1.18,0.54c0.36,0,0.72-0.12,1.02-0.38l2.93-2.93
				c0.3-0.29,0.46-0.68,0.47-1.1v-4.67C22.06,12.12,21.36,11.42,20.5,11.42z"/>
		</g>
	</g>
</g>
</svg>
