<?xml version="1.0" encoding="utf-8"?>
<!-- Generator: Adobe Illustrator 24.1.0, SVG Export Plug-In . SVG Version: 6.00 Build 0)  -->
<svg version="1.1" id="Layer_1" xmlns="http://www.w3.org/2000/svg" xmlns:xlink="http://www.w3.org/1999/xlink" x="0px" y="0px"
	 viewBox="0 0 730.4 84.9" style="enable-background:new 0 0 730.4 84.9;" xml:space="preserve">
<style type="text/css">
	.st0{fill:#F2F1F0;}
	.st1{fill:#E0724D;}
	.st2{fill:#D76D4A;}
	.st3{fill:#0D4659;}
	.st4{fill:#96989A;}
	.st5{fill:#0F4659;}
	.st6{opacity:0.5;}
</style>
<g>
	<path class="st0" d="M165.9,78.4H41.3c-19.8,0-36-16.2-36-36v0c0-19.8,16.2-36,36-36h124.6c19.8,0,36,16.2,36,36v0
		C201.9,62.2,185.7,78.4,165.9,78.4z"/>
	<path class="st1" d="M165.9,80.4H41.3c-20.9,0-38-17-38-38s17-38,38-38h124.6c20.9,0,38,17,38,38S186.8,80.4,165.9,80.4z M41.3,8.5
		c-18.7,0-34,15.2-34,34s15.2,34,34,34h124.6c18.7,0,34-15.2,34-34s-15.2-34-34-34H41.3z"/>
</g>
<g>
	<g>
		<path class="st2" d="M49.4,63.8h-4.7v-30c0-2.5,0.1-4.9,0.2-7.1c-0.4,0.4-0.9,0.8-1.4,1.3c-0.5,0.4-2.8,2.3-6.9,5.6l-2.5-3.3
			l11.1-8.6h4V63.8z"/>
	</g>
</g>
<g>
	<g>
		<path class="st3" d="M76.6,28.7c0,1-0.3,1.7-1,2.2s-1.6,0.8-2.8,0.8s-2.2-0.2-3-0.6v-1.7c0.5,0.2,1,0.4,1.6,0.5
			c0.5,0.1,1.1,0.2,1.5,0.2c0.7,0,1.2-0.1,1.5-0.4c0.3-0.3,0.5-0.6,0.5-1.1c0-0.4-0.2-0.7-0.5-1s-0.9-0.6-1.9-1
			c-1-0.4-1.7-0.8-2.1-1.4s-0.6-1.1-0.6-1.8c0-0.9,0.3-1.6,1-2.1s1.5-0.8,2.6-0.8c1,0,2,0.2,3.1,0.7l-0.6,1.4
			c-1-0.4-1.8-0.6-2.5-0.6c-0.6,0-1,0.1-1.3,0.4s-0.4,0.6-0.4,1c0,0.3,0.1,0.5,0.2,0.7c0.1,0.2,0.3,0.4,0.6,0.6s0.8,0.4,1.5,0.7
			c0.8,0.3,1.4,0.6,1.7,0.9s0.6,0.6,0.8,1S76.6,28.2,76.6,28.7z"/>
	</g>
	<g>
		<path class="st3" d="M85.1,31.6h-6.1V20.9h6.1v1.5h-4.3v2.9h4v1.5h-4v3.4h4.3V31.6z"/>
	</g>
	<g>
		<path class="st3" d="M87.7,31.6V20.9h1.8v9.2H94v1.5H87.7z"/>
	</g>
	<g>
		<path class="st3" d="M102.2,31.6h-6.1V20.9h6.1v1.5h-4.3v2.9h4v1.5h-4v3.4h4.3V31.6z"/>
	</g>
	<g>
		<path class="st3" d="M109.3,22.2c-1,0-1.8,0.4-2.4,1.1s-0.9,1.7-0.9,3c0,1.3,0.3,2.3,0.8,3c0.6,0.7,1.4,1,2.4,1
			c0.5,0,0.9,0,1.3-0.1c0.4-0.1,0.9-0.2,1.3-0.3v1.5c-0.8,0.3-1.8,0.5-2.9,0.5c-1.6,0-2.8-0.5-3.6-1.4c-0.8-0.9-1.3-2.3-1.3-4.1
			c0-1.1,0.2-2.1,0.6-2.9c0.4-0.8,1-1.5,1.8-1.9s1.7-0.7,2.7-0.7c1.1,0,2.1,0.2,3,0.7l-0.6,1.5c-0.4-0.2-0.7-0.3-1.1-0.5
			C110.2,22.3,109.7,22.2,109.3,22.2z"/>
	</g>
	<g>
		<path class="st3" d="M118.8,31.6h-1.8v-9.2h-3.1v-1.5h8v1.5h-3.1V31.6z"/>
	</g>
	<g>
		<path class="st3" d="M127.6,28.7c0-0.6,0.2-1.2,0.5-1.7c0.3-0.5,0.9-0.9,1.7-1.4c-0.5-0.5-0.8-1-0.9-1.4c-0.2-0.4-0.3-0.8-0.3-1.2
			c0-0.7,0.3-1.3,0.8-1.8s1.2-0.6,2.1-0.6c0.9,0,1.5,0.2,2,0.6c0.5,0.4,0.7,1,0.7,1.7c0,0.6-0.2,1.1-0.5,1.5
			c-0.3,0.5-0.9,0.9-1.7,1.4l2.5,2.4c0.4-0.5,0.7-1.3,1-2.3h1.8c-0.3,1.4-0.9,2.5-1.6,3.4l2.2,2.1h-2.2l-1.1-1.1
			c-0.5,0.4-1,0.7-1.6,0.9c-0.6,0.2-1.2,0.3-1.9,0.3c-1.1,0-2-0.3-2.6-0.8C127.9,30.4,127.6,29.7,127.6,28.7z M131.3,30.2
			c0.9,0,1.7-0.3,2.3-0.8l-2.8-2.8c-0.5,0.3-0.9,0.6-1.1,0.9c-0.2,0.3-0.3,0.6-0.3,1c0,0.5,0.2,0.9,0.5,1.2
			C130.2,30.1,130.7,30.2,131.3,30.2z M130.2,23.2c0,0.3,0.1,0.6,0.2,0.9c0.2,0.3,0.4,0.6,0.7,0.9c0.6-0.3,0.9-0.6,1.2-0.9
			c0.2-0.3,0.3-0.6,0.3-0.9c0-0.3-0.1-0.6-0.3-0.8c-0.2-0.2-0.5-0.3-0.8-0.3c-0.4,0-0.7,0.1-0.9,0.3
			C130.3,22.6,130.2,22.8,130.2,23.2z"/>
	</g>
	<g>
		<path class="st3" d="M76.6,45.7c0,1-0.3,1.7-1,2.2s-1.6,0.8-2.8,0.8s-2.2-0.2-3-0.6v-1.7c0.5,0.2,1,0.4,1.6,0.5
			c0.5,0.1,1.1,0.2,1.5,0.2c0.7,0,1.2-0.1,1.5-0.4c0.3-0.3,0.5-0.6,0.5-1.1c0-0.4-0.2-0.7-0.5-1s-0.9-0.6-1.9-1
			c-1-0.4-1.7-0.8-2.1-1.4s-0.6-1.1-0.6-1.8c0-0.9,0.3-1.6,1-2.1s1.5-0.8,2.6-0.8c1,0,2,0.2,3.1,0.7l-0.6,1.4
			c-1-0.4-1.8-0.6-2.5-0.6c-0.6,0-1,0.1-1.3,0.4s-0.4,0.6-0.4,1c0,0.3,0.1,0.5,0.2,0.7c0.1,0.2,0.3,0.4,0.6,0.6s0.8,0.4,1.5,0.7
			c0.8,0.3,1.4,0.6,1.7,0.9s0.6,0.6,0.8,1S76.6,45.2,76.6,45.7z"/>
	</g>
	<g>
		<path class="st3" d="M85.9,48.6l-1.1-3h-4.1l-1,3h-1.8l4-10.8h1.9l4,10.8H85.9z M84.4,44.1l-1-2.9c-0.1-0.2-0.2-0.5-0.3-0.9
			c-0.1-0.4-0.2-0.7-0.3-0.9c-0.1,0.6-0.3,1.3-0.6,2l-1,2.8H84.4z"/>
	</g>
	<g>
		<path class="st3" d="M95.1,37.9h1.8l-3.8,10.7h-1.8l-3.7-10.7h1.8l2.2,6.7c0.1,0.3,0.2,0.7,0.4,1.2s0.2,0.9,0.3,1.1
			c0.1-0.4,0.2-0.8,0.3-1.3s0.2-0.8,0.3-1.1L95.1,37.9z"/>
	</g>
	<g>
		<path class="st3" d="M104.9,48.6h-6.1V37.9h6.1v1.5h-4.3v2.9h4v1.5h-4v3.4h4.3V48.6z"/>
	</g>
	<g>
		<path class="st3" d="M115.6,48.6h-1.8v-9.2h-3.1v-1.5h8v1.5h-3.1V48.6z"/>
	</g>
	<g>
		<path class="st3" d="M130.1,43.2c0,1.7-0.4,3.1-1.3,4.1c-0.9,1-2.1,1.5-3.7,1.5c-1.6,0-2.9-0.5-3.7-1.4c-0.9-1-1.3-2.3-1.3-4.1
			s0.4-3.1,1.3-4.1c0.9-0.9,2.1-1.4,3.7-1.4c1.6,0,2.8,0.5,3.7,1.4C129.7,40.1,130.1,41.4,130.1,43.2z M121.9,43.2
			c0,1.3,0.3,2.3,0.8,3c0.5,0.7,1.3,1,2.4,1c1,0,1.8-0.3,2.4-1c0.5-0.7,0.8-1.7,0.8-3c0-1.3-0.3-2.3-0.8-3s-1.3-1-2.3-1
			c-1,0-1.8,0.3-2.4,1C122.2,40.9,121.9,41.9,121.9,43.2z"/>
	</g>
	<g>
		<path class="st3" d="M75.1,65.6L72,56.6h-0.1c0.1,1.3,0.1,2.6,0.1,3.7v5.2h-1.6V54.9h2.5l3,8.5h0l3.1-8.5h2.5v10.7h-1.7v-5.3
			c0-0.5,0-1.2,0-2.1s0.1-1.4,0.1-1.6h-0.1l-3.2,8.9H75.1z"/>
	</g>
	<g>
		<path class="st3" d="M87.9,59.7l2.5-4.9h1.9l-3.6,6.6v4.2H87v-4.1l-3.6-6.6h1.9L87.9,59.7z"/>
	</g>
	<g>
		<path class="st3" d="M102.9,56.2c-1,0-1.8,0.4-2.4,1.1s-0.9,1.7-0.9,3c0,1.3,0.3,2.3,0.8,3c0.6,0.7,1.4,1,2.4,1
			c0.5,0,0.9,0,1.3-0.1c0.4-0.1,0.9-0.2,1.3-0.3v1.5c-0.8,0.3-1.8,0.5-2.9,0.5c-1.6,0-2.8-0.5-3.6-1.4c-0.8-0.9-1.3-2.3-1.3-4.1
			c0-1.1,0.2-2.1,0.6-2.9c0.4-0.8,1-1.5,1.8-1.9s1.7-0.7,2.7-0.7c1.1,0,2.1,0.2,3,0.7l-0.6,1.5c-0.4-0.2-0.7-0.3-1.1-0.5
			C103.8,56.3,103.4,56.2,102.9,56.2z"/>
	</g>
	<g>
		<path class="st3" d="M115.3,65.6l-1.1-3h-4.1l-1,3h-1.8l4-10.8h1.9l4,10.8H115.3z M113.8,61.1l-1-2.9c-0.1-0.2-0.2-0.5-0.3-0.9
			c-0.1-0.4-0.2-0.7-0.3-0.9c-0.1,0.6-0.3,1.3-0.6,2l-1,2.8H113.8z"/>
	</g>
	<g>
		<path class="st3" d="M125.6,62.7c0,1-0.3,1.7-1,2.2s-1.6,0.8-2.8,0.8s-2.2-0.2-3-0.6v-1.7c0.5,0.2,1,0.4,1.6,0.5
			c0.5,0.1,1.1,0.2,1.5,0.2c0.7,0,1.2-0.1,1.5-0.4c0.3-0.3,0.5-0.6,0.5-1.1c0-0.4-0.2-0.7-0.5-1s-0.9-0.6-1.9-1
			c-1-0.4-1.7-0.8-2.1-1.4s-0.6-1.1-0.6-1.8c0-0.9,0.3-1.6,1-2.1s1.5-0.8,2.6-0.8c1,0,2,0.2,3.1,0.7l-0.6,1.4
			c-1-0.4-1.8-0.6-2.5-0.6c-0.6,0-1,0.1-1.3,0.4s-0.4,0.6-0.4,1c0,0.3,0.1,0.5,0.2,0.7c0.1,0.2,0.3,0.4,0.6,0.6s0.8,0.4,1.5,0.7
			c0.8,0.3,1.4,0.6,1.7,0.9s0.6,0.6,0.8,1S125.6,62.2,125.6,62.7z"/>
	</g>
	<g>
		<path class="st3" d="M134.1,65.6H128V54.9h6.1v1.5h-4.3v2.9h4v1.5h-4v3.4h4.3V65.6z"/>
	</g>
	<g>
		<path class="st3" d="M143,62.7c0,1-0.3,1.7-1,2.2s-1.6,0.8-2.8,0.8s-2.2-0.2-3-0.6v-1.7c0.5,0.2,1,0.4,1.6,0.5
			c0.5,0.1,1.1,0.2,1.5,0.2c0.7,0,1.2-0.1,1.5-0.4c0.3-0.3,0.5-0.6,0.5-1.1c0-0.4-0.2-0.7-0.5-1s-0.9-0.6-1.9-1
			c-1-0.4-1.7-0.8-2.1-1.4s-0.6-1.1-0.6-1.8c0-0.9,0.3-1.6,1-2.1s1.5-0.8,2.6-0.8c1,0,2,0.2,3.1,0.7l-0.6,1.4
			c-1-0.4-1.8-0.6-2.5-0.6c-0.6,0-1,0.1-1.3,0.4s-0.4,0.6-0.4,1c0,0.3,0.1,0.5,0.2,0.7c0.1,0.2,0.3,0.4,0.6,0.6s0.8,0.4,1.5,0.7
			c0.8,0.3,1.4,0.6,1.7,0.9s0.6,0.6,0.8,1S143,62.2,143,62.7z"/>
	</g>
</g>
<g>
	<polygon class="st4" points="249.8,42.5 235.5,32.6 235.5,52.3 	"/>
</g>
<g>
	<rect x="224.1" y="38.5" class="st4" width="12.4" height="7.9"/>
</g>
<g>
	<path class="st0" d="M428.5,78.4H303.8c-19.8,0-36-16.2-36-36v0c0-19.8,16.2-36,36-36h124.6c19.8,0,36,16.2,36,36v0
		C464.4,62.2,448.2,78.4,428.5,78.4z"/>
	<path class="st1" d="M428.5,80.4H303.8c-20.9,0-38-17-38-38s17-38,38-38h124.6c20.9,0,38,17,38,38S449.4,80.4,428.5,80.4z
		 M303.8,8.5c-18.7,0-34,15.2-34,34s15.2,34,34,34h124.6c18.7,0,34-15.2,34-34s-15.2-34-34-34H303.8z"/>
</g>
<g>
	<g>
		<path class="st2" d="M328.7,63.8H301v-4.1l11.1-11.1c3.4-3.4,5.6-5.9,6.7-7.3c1.1-1.5,1.9-2.9,2.4-4.3c0.5-1.4,0.8-2.9,0.8-4.5
			c0-2.2-0.7-4-2-5.3c-1.4-1.3-3.3-2-5.7-2c-1.7,0-3.4,0.3-5,0.9c-1.6,0.6-3.3,1.6-5.2,3.1l-2.5-3.3c3.9-3.2,8.1-4.8,12.7-4.8
			c4,0,7.1,1,9.3,3s3.4,4.7,3.4,8.2c0,2.7-0.7,5.3-2.2,7.9c-1.5,2.6-4.3,5.9-8.4,9.9l-9.2,9v0.2h21.7V63.8z"/>
	</g>
</g>
<g>
	<g>
		<path class="st5" d="M348.7,27.3v4.3h-1.8V20.9h3c1.4,0,2.4,0.3,3.1,0.8s1,1.3,1,2.3c0,1.3-0.7,2.3-2.1,2.8l3,4.7h-2l-2.6-4.3
			H348.7z M348.7,25.8h1.2c0.8,0,1.4-0.2,1.8-0.5s0.5-0.8,0.5-1.3c0-0.6-0.2-1-0.6-1.3s-1-0.4-1.8-0.4h-1.2V25.8z"/>
	</g>
	<g>
		<path class="st5" d="M363,31.6H357V20.9h6.1v1.5h-4.3v2.9h4v1.5h-4v3.4h4.3V31.6z"/>
	</g>
	<g>
		<path class="st5" d="M372.2,20.9h1.8l-3.8,10.7h-1.8l-3.7-10.7h1.8l2.2,6.7c0.1,0.3,0.2,0.7,0.4,1.2s0.2,0.9,0.3,1.1
			c0.1-0.4,0.2-0.8,0.3-1.3s0.2-0.8,0.3-1.1L372.2,20.9z"/>
	</g>
	<g>
		<path class="st5" d="M376,31.6V20.9h1.8v10.7H376z"/>
	</g>
	<g>
		<path class="st5" d="M386.9,31.6h-6.1V20.9h6.1v1.5h-4.3v2.9h4v1.5h-4v3.4h4.3V31.6z"/>
	</g>
	<g>
		<path class="st5" d="M399.9,31.6H398l-1.8-6.4c-0.1-0.3-0.2-0.7-0.3-1.2c-0.1-0.5-0.2-0.9-0.2-1.1c0,0.3-0.1,0.7-0.2,1.2
			c-0.1,0.5-0.2,0.9-0.3,1.1l-1.8,6.4h-1.9l-1.4-5.4l-1.4-5.3h1.8l1.5,6.2c0.2,1,0.4,1.9,0.5,2.7c0.1-0.4,0.1-0.9,0.2-1.4
			s0.2-0.9,0.3-1.2l1.7-6.3h1.7l1.8,6.3c0.2,0.6,0.4,1.5,0.5,2.6c0.1-0.7,0.2-1.6,0.5-2.7l1.5-6.2h1.8L399.9,31.6z"/>
	</g>
	<g>
		<path class="st5" d="M351.5,48.6l-3.1-8.9h-0.1c0.1,1.3,0.1,2.6,0.1,3.7v5.2h-1.6V37.9h2.5l3,8.5h0l3.1-8.5h2.5v10.7h-1.7v-5.3
			c0-0.5,0-1.2,0-2.1s0.1-1.4,0.1-1.6h-0.1l-3.2,8.9H351.5z"/>
	</g>
	<g>
		<path class="st5" d="M364.3,42.7l2.5-4.9h1.9l-3.6,6.6v4.2h-1.8v-4.1l-3.6-6.6h1.9L364.3,42.7z"/>
	</g>
	<g>
		<path class="st5" d="M351.5,56.2c-1,0-1.8,0.4-2.4,1.1s-0.9,1.7-0.9,3c0,1.3,0.3,2.3,0.8,3c0.6,0.7,1.4,1,2.4,1
			c0.5,0,0.9,0,1.3-0.1c0.4-0.1,0.9-0.2,1.3-0.3v1.5c-0.8,0.3-1.8,0.5-2.9,0.5c-1.6,0-2.8-0.5-3.6-1.4c-0.8-0.9-1.3-2.3-1.3-4.1
			c0-1.1,0.2-2.1,0.6-2.9c0.4-0.8,1-1.5,1.8-1.9s1.7-0.7,2.7-0.7c1.1,0,2.1,0.2,3,0.7l-0.6,1.5c-0.4-0.2-0.7-0.3-1.1-0.5
			C352.3,56.3,351.9,56.2,351.5,56.2z"/>
	</g>
	<g>
		<path class="st5" d="M363.8,65.6l-1.1-3h-4.1l-1,3h-1.8l4-10.8h1.9l4,10.8H363.8z M362.3,61.1l-1-2.9c-0.1-0.2-0.2-0.5-0.3-0.9
			c-0.1-0.4-0.2-0.7-0.3-0.9c-0.1,0.6-0.3,1.3-0.6,2l-1,2.8H362.3z"/>
	</g>
	<g>
		<path class="st5" d="M374.1,62.7c0,1-0.3,1.7-1,2.2s-1.6,0.8-2.8,0.8s-2.2-0.2-3-0.6v-1.7c0.5,0.2,1,0.4,1.6,0.5
			c0.5,0.1,1.1,0.2,1.5,0.2c0.7,0,1.2-0.1,1.5-0.4c0.3-0.3,0.5-0.6,0.5-1.1c0-0.4-0.2-0.7-0.5-1s-0.9-0.6-1.9-1
			c-1-0.4-1.7-0.8-2.1-1.4s-0.6-1.1-0.6-1.8c0-0.9,0.3-1.6,1-2.1s1.5-0.8,2.6-0.8c1,0,2,0.2,3.1,0.7l-0.6,1.4
			c-1-0.4-1.8-0.6-2.5-0.6c-0.6,0-1,0.1-1.3,0.4s-0.4,0.6-0.4,1c0,0.3,0.1,0.5,0.2,0.7c0.1,0.2,0.3,0.4,0.6,0.6s0.8,0.4,1.5,0.7
			c0.8,0.3,1.4,0.6,1.7,0.9s0.6,0.6,0.8,1S374.1,62.2,374.1,62.7z"/>
	</g>
	<g>
		<path class="st5" d="M382.6,65.6h-6.1V54.9h6.1v1.5h-4.3v2.9h4v1.5h-4v3.4h4.3V65.6z"/>
	</g>
	<g>
		<path class="st5" d="M391.5,62.7c0,1-0.3,1.7-1,2.2s-1.6,0.8-2.8,0.8s-2.2-0.2-3-0.6v-1.7c0.5,0.2,1,0.4,1.6,0.5
			c0.5,0.1,1.1,0.2,1.5,0.2c0.7,0,1.2-0.1,1.5-0.4c0.3-0.3,0.5-0.6,0.5-1.1c0-0.4-0.2-0.7-0.5-1s-0.9-0.6-1.9-1
			c-1-0.4-1.7-0.8-2.1-1.4s-0.6-1.1-0.6-1.8c0-0.9,0.3-1.6,1-2.1s1.5-0.8,2.6-0.8c1,0,2,0.2,3.1,0.7l-0.6,1.4
			c-1-0.4-1.8-0.6-2.5-0.6c-0.6,0-1,0.1-1.3,0.4s-0.4,0.6-0.4,1c0,0.3,0.1,0.5,0.2,0.7c0.1,0.2,0.3,0.4,0.6,0.6s0.8,0.4,1.5,0.7
			c0.8,0.3,1.4,0.6,1.7,0.9s0.6,0.6,0.8,1S391.5,62.2,391.5,62.7z"/>
	</g>
</g>
<g>
	<polygon class="st4" points="512,42.5 497.7,32.6 497.7,38.5 486.4,38.5 486.4,46.4 497.7,46.4 497.7,52.3 	"/>
</g>
<g class="st6">
	<path class="st0" d="M689.3,78.4H564.7c-19.8,0-36-16.2-36-36v0c0-19.8,16.2-36,36-36h124.6c19.8,0,36,16.2,36,36v0
		C725.3,62.2,709.1,78.4,689.3,78.4z"/>
	<path class="st1" d="M689.3,80.4H564.7c-20.9,0-38-17-38-38s17-38,38-38h124.6c20.9,0,38,17,38,38S710.3,80.4,689.3,80.4z
		 M564.7,8.5c-18.7,0-34,15.2-34,34s15.2,34,34,34h124.6c18.7,0,34-15.2,34-34s-15.2-34-34-34H564.7z"/>
</g>
<g class="st6">
	<g>
		<path class="st2" d="M586.1,31.6c0,2.7-0.8,4.9-2.3,6.6c-1.5,1.7-3.6,2.9-6.4,3.4v0.2c3.4,0.4,5.9,1.5,7.5,3.2s2.4,4,2.4,6.8
			c0,4-1.4,7.1-4.2,9.3c-2.8,2.2-6.7,3.2-11.9,3.2c-2.2,0-4.3-0.2-6.1-0.5c-1.9-0.3-3.7-0.9-5.4-1.8v-4.6c1.8,0.9,3.8,1.6,5.8,2.1
			s4,0.7,5.9,0.7c7.3,0,10.9-2.9,10.9-8.6c0-5.1-4-7.7-12-7.7h-4.1v-4.1h4.2c3.3,0,5.9-0.7,7.8-2.2c1.9-1.4,2.9-3.5,2.9-6
			c0-2.1-0.7-3.7-2.1-4.8c-1.4-1.2-3.3-1.8-5.7-1.8c-1.8,0-3.6,0.2-5.2,0.7c-1.6,0.5-3.5,1.4-5.6,2.8l-2.4-3.2
			c1.7-1.4,3.7-2.4,6-3.2c2.3-0.8,4.6-1.2,7.1-1.2c4.1,0,7.3,0.9,9.5,2.8C585,25.7,586.1,28.3,586.1,31.6z"/>
	</g>
</g>
<g class="st6">
	<g>
		<path class="st5" d="M611.1,28.7c0,1-0.3,1.7-1,2.2s-1.6,0.8-2.8,0.8s-2.2-0.2-3-0.6v-1.7c0.5,0.2,1,0.4,1.6,0.5
			c0.5,0.1,1.1,0.2,1.5,0.2c0.7,0,1.2-0.1,1.5-0.4c0.3-0.3,0.5-0.6,0.5-1.1c0-0.4-0.2-0.7-0.5-1s-0.9-0.6-1.9-1
			c-1-0.4-1.7-0.8-2.1-1.4s-0.6-1.1-0.6-1.8c0-0.9,0.3-1.6,1-2.1s1.5-0.8,2.6-0.8c1,0,2,0.2,3.1,0.7l-0.6,1.4
			c-1-0.4-1.8-0.6-2.5-0.6c-0.6,0-1,0.1-1.3,0.4s-0.4,0.6-0.4,1c0,0.3,0.1,0.5,0.2,0.7c0.1,0.2,0.3,0.4,0.6,0.6s0.8,0.4,1.5,0.7
			c0.8,0.3,1.4,0.6,1.7,0.9s0.6,0.6,0.8,1S611.1,28.2,611.1,28.7z"/>
	</g>
	<g>
		<path class="st5" d="M619.6,31.6h-6.1V20.9h6.1v1.5h-4.3v2.9h4v1.5h-4v3.4h4.3V31.6z"/>
	</g>
	<g>
		<path class="st5" d="M622.2,31.6V20.9h1.8v9.2h4.5v1.5H622.2z"/>
	</g>
	<g>
		<path class="st5" d="M636.7,31.6h-6.1V20.9h6.1v1.5h-4.3v2.9h4v1.5h-4v3.4h4.3V31.6z"/>
	</g>
	<g>
		<path class="st5" d="M643.7,22.2c-1,0-1.8,0.4-2.4,1.1s-0.9,1.7-0.9,3c0,1.3,0.3,2.3,0.8,3c0.6,0.7,1.4,1,2.4,1
			c0.5,0,0.9,0,1.3-0.1c0.4-0.1,0.9-0.2,1.3-0.3v1.5c-0.8,0.3-1.8,0.5-2.9,0.5c-1.6,0-2.8-0.5-3.6-1.4c-0.8-0.9-1.3-2.3-1.3-4.1
			c0-1.1,0.2-2.1,0.6-2.9c0.4-0.8,1-1.5,1.8-1.9s1.7-0.7,2.7-0.7c1.1,0,2.1,0.2,3,0.7l-0.6,1.5c-0.4-0.2-0.7-0.3-1.1-0.5
			C644.6,22.3,644.2,22.2,643.7,22.2z"/>
	</g>
	<g>
		<path class="st5" d="M653.3,31.6h-1.8v-9.2h-3.1v-1.5h8v1.5h-3.1V31.6z"/>
	</g>
	<g>
		<path class="st5" d="M664.5,31.6h-1.7V20.9h6v1.5h-4.3v3.3h4v1.5h-4V31.6z"/>
	</g>
	<g>
		<path class="st5" d="M671,31.6V20.9h1.8v10.7H671z"/>
	</g>
	<g>
		<path class="st5" d="M675.9,31.6V20.9h1.8v9.2h4.5v1.5H675.9z"/>
	</g>
	<g>
		<path class="st5" d="M690.4,31.6h-6.1V20.9h6.1v1.5h-4.3v2.9h4v1.5h-4v3.4h4.3V31.6z"/>
	</g>
	<g>
		<path class="st5" d="M699.3,28.7c0,1-0.3,1.7-1,2.2s-1.6,0.8-2.8,0.8s-2.2-0.2-3-0.6v-1.7c0.5,0.2,1,0.4,1.6,0.5
			c0.5,0.1,1.1,0.2,1.5,0.2c0.7,0,1.2-0.1,1.5-0.4c0.3-0.3,0.5-0.6,0.5-1.1c0-0.4-0.2-0.7-0.5-1s-0.9-0.6-1.9-1
			c-1-0.4-1.7-0.8-2.1-1.4s-0.6-1.1-0.6-1.8c0-0.9,0.3-1.6,1-2.1s1.5-0.8,2.6-0.8c1,0,2,0.2,3.1,0.7l-0.6,1.4
			c-1-0.4-1.8-0.6-2.5-0.6c-0.6,0-1,0.1-1.3,0.4s-0.4,0.6-0.4,1c0,0.3,0.1,0.5,0.2,0.7c0.1,0.2,0.3,0.4,0.6,0.6s0.8,0.4,1.5,0.7
			c0.8,0.3,1.4,0.6,1.7,0.9s0.6,0.6,0.8,1S699.3,28.2,699.3,28.7z"/>
	</g>
	<g>
		<path class="st5" d="M604.2,45.7c0-0.6,0.2-1.2,0.5-1.7c0.3-0.5,0.9-0.9,1.7-1.4c-0.5-0.5-0.8-1-0.9-1.4c-0.2-0.4-0.3-0.8-0.3-1.2
			c0-0.7,0.3-1.3,0.8-1.8c0.5-0.4,1.2-0.6,2.1-0.6c0.9,0,1.5,0.2,2,0.6c0.5,0.4,0.7,1,0.7,1.7c0,0.6-0.2,1.1-0.5,1.5
			c-0.3,0.5-0.9,0.9-1.7,1.4l2.5,2.4c0.4-0.5,0.7-1.3,1-2.3h1.8c-0.3,1.4-0.9,2.5-1.6,3.4l2.2,2.1h-2.2l-1.1-1.1
			c-0.5,0.4-1,0.7-1.6,0.9c-0.6,0.2-1.2,0.3-1.9,0.3c-1.1,0-2-0.3-2.6-0.8S604.2,46.7,604.2,45.7z M607.9,47.2
			c0.9,0,1.7-0.3,2.3-0.8l-2.8-2.8c-0.5,0.3-0.9,0.6-1.1,0.9c-0.2,0.3-0.3,0.6-0.3,1c0,0.5,0.2,0.9,0.5,1.2
			C606.9,47.1,607.3,47.2,607.9,47.2z M606.8,40.2c0,0.3,0.1,0.6,0.2,0.9c0.2,0.3,0.4,0.6,0.7,0.9c0.6-0.3,0.9-0.6,1.2-0.9
			c0.2-0.3,0.3-0.6,0.3-0.9c0-0.3-0.1-0.6-0.3-0.8c-0.2-0.2-0.5-0.3-0.8-0.3c-0.4,0-0.7,0.1-0.9,0.3
			C606.9,39.6,606.8,39.8,606.8,40.2z"/>
	</g>
	<g>
		<path class="st5" d="M625.2,39.2c-1,0-1.8,0.4-2.4,1.1s-0.9,1.7-0.9,3c0,1.3,0.3,2.3,0.8,3c0.6,0.7,1.4,1,2.4,1
			c0.5,0,0.9,0,1.3-0.1c0.4-0.1,0.9-0.2,1.3-0.3v1.5c-0.8,0.3-1.8,0.5-2.9,0.5c-1.6,0-2.8-0.5-3.6-1.4c-0.8-0.9-1.3-2.3-1.3-4.1
			c0-1.1,0.2-2.1,0.6-2.9c0.4-0.8,1-1.5,1.8-1.9s1.7-0.7,2.7-0.7c1.1,0,2.1,0.2,3,0.7l-0.6,1.5c-0.4-0.2-0.7-0.3-1.1-0.5
			C626.1,39.3,625.7,39.2,625.2,39.2z"/>
	</g>
	<g>
		<path class="st5" d="M632.2,44.3v4.3h-1.8V37.9h3c1.4,0,2.4,0.3,3.1,0.8s1,1.3,1,2.3c0,1.3-0.7,2.3-2.1,2.8l3,4.7h-2l-2.6-4.3
			H632.2z M632.2,42.8h1.2c0.8,0,1.4-0.2,1.8-0.5s0.5-0.8,0.5-1.3c0-0.6-0.2-1-0.6-1.3s-1-0.4-1.8-0.4h-1.2V42.8z"/>
	</g>
	<g>
		<path class="st5" d="M646.6,48.6h-6.1V37.9h6.1v1.5h-4.3v2.9h4v1.5h-4v3.4h4.3V48.6z"/>
	</g>
	<g>
		<path class="st5" d="M656.3,48.6l-1.1-3h-4.1l-1,3h-1.8l4-10.8h1.9l4,10.8H656.3z M654.8,44.1l-1-2.9c-0.1-0.2-0.2-0.5-0.3-0.9
			c-0.1-0.4-0.2-0.7-0.3-0.9c-0.1,0.6-0.3,1.3-0.6,2l-1,2.8H654.8z"/>
	</g>
	<g>
		<path class="st5" d="M662.9,48.6h-1.8v-9.2H658v-1.5h8v1.5h-3.1V48.6z"/>
	</g>
	<g>
		<path class="st5" d="M674.1,48.6h-6.1V37.9h6.1v1.5h-4.3v2.9h4v1.5h-4v3.4h4.3V48.6z"/>
	</g>
	<g>
		<path class="st5" d="M609.5,65.6l-3.1-8.9h-0.1c0.1,1.3,0.1,2.6,0.1,3.7v5.2h-1.6V54.9h2.5l3,8.5h0l3.1-8.5h2.5v10.7h-1.7v-5.3
			c0-0.5,0-1.2,0-2.1c0-0.9,0-1.4,0.1-1.6h-0.1l-3.2,8.9H609.5z"/>
	</g>
	<g>
		<path class="st5" d="M625.9,65.6l-1.1-3h-4.1l-1,3h-1.8l4-10.8h1.9l4,10.8H625.9z M624.4,61.1l-1-2.9c-0.1-0.2-0.2-0.5-0.3-0.9
			c-0.1-0.4-0.2-0.7-0.3-0.9c-0.1,0.6-0.3,1.3-0.6,2l-1,2.8H624.4z"/>
	</g>
	<g>
		<path class="st5" d="M638.7,65.6h-2.1l-5.3-8.5h-0.1l0,0.5c0.1,0.9,0.1,1.7,0.1,2.5v5.6h-1.6V54.9h2.1l5.3,8.5h0
			c0-0.1,0-0.5-0.1-1.2c0-0.7,0-1.3,0-1.7v-5.6h1.6V65.6z"/>
	</g>
	<g>
		<path class="st5" d="M641.8,65.6V54.9h1.8v10.7H641.8z"/>
	</g>
	<g>
		<path class="st5" d="M648.4,65.6h-1.7V54.9h6v1.5h-4.3v3.3h4v1.5h-4V65.6z"/>
	</g>
	<g>
		<path class="st5" d="M661,65.6h-6.1V54.9h6.1v1.5h-4.3v2.9h4v1.5h-4v3.4h4.3V65.6z"/>
	</g>
	<g>
		<path class="st5" d="M669.9,62.7c0,1-0.3,1.7-1,2.2s-1.6,0.8-2.8,0.8s-2.2-0.2-3-0.6v-1.7c0.5,0.2,1,0.4,1.6,0.5
			c0.5,0.1,1.1,0.2,1.5,0.2c0.7,0,1.2-0.1,1.5-0.4c0.3-0.3,0.5-0.6,0.5-1.1c0-0.4-0.2-0.7-0.5-1s-0.9-0.6-1.9-1
			c-1-0.4-1.7-0.8-2.1-1.4s-0.6-1.1-0.6-1.8c0-0.9,0.3-1.6,1-2.1s1.5-0.8,2.6-0.8c1,0,2,0.2,3.1,0.7l-0.6,1.4
			c-1-0.4-1.8-0.6-2.5-0.6c-0.6,0-1,0.1-1.3,0.4s-0.4,0.6-0.4,1c0,0.3,0.1,0.5,0.2,0.7c0.1,0.2,0.3,0.4,0.6,0.6s0.8,0.4,1.5,0.7
			c0.8,0.3,1.4,0.6,1.7,0.9s0.6,0.6,0.8,1S669.9,62.2,669.9,62.7z"/>
	</g>
	<g>
		<path class="st5" d="M676.4,65.6h-1.8v-9.2h-3.1v-1.5h8v1.5h-3.1V65.6z"/>
	</g>
</g>
</svg>
