<svg width="22" height="22" viewBox="0 0 22 22" fill="none" xmlns="http://www.w3.org/2000/svg">
<g id="globalSearchSearch 1" clip-path="url(#clip0_455_761)">
<g id="Group">
<g id="Group_2">
<g id="Group_3">
<g id="Group_4">
<path id="Vector" fill-rule="evenodd" clip-rule="evenodd" d="M14.8 9.29995C14.7 7.69995 14.1 6.39995 12.9 5.29995C11.7 4.19995 10.4 3.69995 8.79995 3.79995C7.19995 3.89995 5.99995 4.59995 4.89995 5.79995C3.79995 6.89995 3.29995 8.29995 3.39995 9.89995C3.49995 11.4999 4.09995 12.7999 5.29995 13.8999C6.49995 14.9999 7.79995 15.4999 9.39995 15.3999C11 15.2999 12.3 14.6999 13.4 13.4999C14.5 12.2999 14.9 10.8999 14.8 9.29995ZM21.9 19.6999C21.9 20.0999 21.7999 20.4999 21.5 20.8999C21.2 21.1999 20.7999 21.3999 20.4 21.3999C19.9 21.3999 19.5 21.2999 19.2 20.9999L14.6 16.7999C13.1 17.8999 11.5 18.4999 9.59995 18.5999C8.29995 18.6999 7.19995 18.4999 5.99995 18.0999C4.89995 17.6999 3.89995 17.0999 2.99995 16.2999C2.19995 15.4999 1.49995 14.5999 0.999951 13.4999C0.499951 12.3999 0.199951 11.2999 0.0999512 9.99995C-4.88311e-05 8.69995 0.199951 7.59995 0.699951 6.49995C1.19995 5.39995 1.69995 4.39995 2.49995 3.49995C3.19995 2.69995 4.09995 1.99995 5.19995 1.49995C6.29995 0.999946 7.39995 0.699946 8.69995 0.599946C9.99995 0.499946 11.1 0.699946 12.2 1.09995C13.3 1.49995 14.3 2.09995 15.2 2.89995C16 3.69995 16.6999 4.59995 17.2999 5.69995C17.9 6.79995 18.1 7.89995 18.2 9.19995C18.3 11.0999 17.7999 12.7999 16.9 14.3999L21.5 18.5999C21.7 18.7999 21.9 19.1999 21.9 19.6999Z" fill="#0B3557"/>
</g>
</g>
</g>
</g>
</g>
<defs>
<clipPath id="clip0_455_761">
<rect width="22" height="21" fill="white" transform="translate(0 0.5)"/>
</clipPath>
</defs>
</svg>
