<svg width="20" height="20" viewBox="0 0 20 20" fill="none" xmlns="http://www.w3.org/2000/svg">
<g clip-path="url(#clip0_1070_11)">
<path d="M11.0525 12.2105V4.10526H9.05249V12.2105L6.42091 9.6842L5.05249 11.0526L9.99986 16L14.9472 11.0526L13.5788 9.6842L11.0525 12.2105Z" fill="#09557B"/>
<path d="M16.9473 0.105255H3.05259C1.36838 0.105255 0.105225 1.36841 0.105225 3.05262V16.9474C0.105225 18.6316 1.36838 19.8947 3.05259 19.8947H16.9473C18.6315 19.8947 19.8947 18.6316 19.8947 16.9474V3.05262C19.8947 1.36841 18.6315 0.105255 16.9473 0.105255ZM18 16.9474C18 17.5789 17.5789 17.8947 17.0526 17.8947H3.05259C2.42101 17.8947 2.10522 17.4737 2.10522 16.9474V3.05262C2.10522 2.42104 2.42101 2.10526 3.05259 2.10526H16.9473C17.5789 2.10526 17.8947 2.52631 17.8947 3.05262V16.9474H18Z" fill="#09557B"/>
</g>
<defs>
<clipPath id="clip0_1070_11">
<rect width="20" height="20" fill="white"/>
</clipPath>
</defs>
</svg>
