<svg width="25" height="25" viewBox="0 0 25 25" fill="none" xmlns="http://www.w3.org/2000/svg">
<g clip-path="url(#clip0_23_1644)">
<path d="M20.72 24.9064H3.79388C1.6538 24.9064 -0.097168 23.221 -0.097168 21.161V3.93257C-0.097168 1.87265 1.6538 0.187256 3.79388 0.187256H20.72C22.86 0.187256 24.611 1.87265 24.611 3.93257V21.161C24.611 23.221 22.86 24.9064 20.72 24.9064Z" fill="#0A4A6D"/>
<path d="M17.4124 7.86517C17.0233 7.397 16.3424 7.397 15.856 7.77154L13.2296 10.2996V3.93258C13.2296 3.83895 13.2296 3.83895 13.2296 3.74532C13.1323 3.27715 12.6459 2.90262 12.1595 2.99626C11.6731 3.08989 11.284 3.55805 11.3813 4.02622V10.3933L8.65757 7.77154C8.5603 7.6779 8.5603 7.58427 8.46302 7.58427C7.97664 7.20974 7.2957 7.30337 6.9066 7.77154C6.51749 8.2397 6.61477 8.89513 7.10115 9.26966L11.4786 13.4831C11.6731 13.6704 11.965 13.764 12.2568 13.764C12.5486 13.764 12.8405 13.6704 13.035 13.4831L17.4124 9.26966C17.8015 8.89513 17.8015 8.2397 17.4124 7.86517Z" fill="white"/>
<path d="M18.677 17.1348C18.7743 17.1348 18.8716 17.1348 18.8716 17.0412C18.9688 17.0412 19.0661 17.0412 19.1634 16.9476C19.2607 16.8539 19.358 16.7603 19.358 16.573C19.358 16.3858 19.2607 16.2921 19.1634 16.1985C19.0661 16.1049 18.8716 16.1049 18.677 16.1049H16.1478C16.0506 16.1049 15.856 16.1049 15.7587 16.1985C15.6615 16.2921 15.5642 16.3858 15.4669 16.4794C15.3696 16.573 15.3696 16.6667 15.3696 16.8539V16.9476V20.7865V20.8801C15.3696 21.0674 15.4669 21.2547 15.5642 21.3483C15.6615 21.4419 15.7587 21.5356 15.9533 21.5356C15.9533 21.5356 15.9533 21.5356 16.0506 21.5356C16.2451 21.5356 16.4397 21.5356 16.5369 21.161C16.6342 21.0674 16.7315 20.8801 16.7315 20.5992V19.1947H18.2879C18.4825 19.1947 18.5797 19.1947 18.677 19.1011C18.7743 19.0075 18.7743 19.0075 18.7743 18.9138H18.8716C18.9688 18.8202 19.0661 18.7266 19.0661 18.5393C19.0661 18.352 18.9688 18.2584 18.8716 18.1648C18.7743 18.0711 18.5797 18.0711 18.3852 18.0711H16.7315V17.1348H18.677Z" fill="white"/>
<path d="M9.14395 17.0412C9.04668 16.7603 8.9494 16.6667 8.75485 16.4794C8.5603 16.3858 8.36574 16.2921 8.17119 16.1985C7.97664 16.1049 7.58753 16.1049 7.19843 16.1049H5.83656C5.54473 16.1049 5.35018 16.1985 5.2529 16.2921C5.15563 16.3858 5.05835 16.573 5.05835 16.8539V20.7865C5.05835 21.0674 5.15563 21.2547 5.2529 21.3483C5.35018 21.4419 5.54473 21.5356 5.73928 21.5356C5.93384 21.5356 6.12839 21.5356 6.22567 21.2547C6.32294 21.0674 6.42022 20.8801 6.42022 20.6929V19.382H7.10115H7.2957C7.87936 19.382 8.46302 19.1011 8.75485 18.9138C9.04668 18.7266 9.24123 18.2584 9.24123 17.7903C9.24123 17.7903 9.24123 17.7903 9.24123 17.6966C9.24123 17.5094 9.24123 17.2285 9.14395 17.0412ZM7.97664 17.8839C7.97664 18.0712 7.97664 18.1648 7.87936 18.2584C7.87936 18.352 7.68481 18.4457 7.58753 18.4457C7.39298 18.5393 7.19843 18.5393 7.00387 18.5393H6.42022V17.2285H6.9066C7.49026 17.2285 7.68481 17.3221 7.78209 17.4157C7.87936 17.5094 7.97664 17.6966 7.97664 17.8839Z" fill="white"/>
<path d="M13.035 16.1985C12.7431 16.1049 12.4513 16.1049 12.0622 16.1049H10.7003C10.4085 16.1049 10.2139 16.1985 10.1167 16.2921C10.0194 16.3858 9.92212 16.573 9.92212 16.8539V20.5992C9.92212 20.7865 10.0194 20.9738 10.0194 21.0674C10.0194 21.161 10.1167 21.161 10.2139 21.2547L10.3112 21.3483C10.4085 21.4419 10.6031 21.4419 10.7976 21.4419H12.1595C12.4513 21.4419 12.6459 21.4419 12.7431 21.3483C12.9377 21.2547 13.1322 21.2547 13.3268 21.161C13.5213 21.161 13.6186 20.9738 13.8132 20.8801C14.0077 20.6929 14.2023 20.5056 14.2996 20.3183C14.3968 20.0374 14.4941 19.8502 14.5914 19.5693C14.6887 19.2884 14.6887 19.0075 14.6887 18.7266C14.6887 17.7903 14.3968 17.0412 13.8132 16.573C13.5213 16.3858 13.3268 16.2921 13.035 16.1985ZM13.3268 18.8202C13.3268 19.4756 13.1322 19.9438 12.8404 20.2247C12.8404 20.2247 12.7431 20.3183 12.6459 20.3183C12.5486 20.412 12.4513 20.412 12.354 20.412C12.2567 20.412 12.1595 20.412 11.9649 20.412H11.284V17.2285H11.8676C12.1595 17.2285 12.4513 17.2285 12.6459 17.3221C12.8404 17.4157 13.035 17.603 13.1322 17.7903C13.2295 17.9775 13.3268 18.352 13.3268 18.8202Z" fill="white"/>
</g>
<defs>
<clipPath id="clip0_23_1644">
<rect width="25" height="25" fill="white"/>
</clipPath>
</defs>
</svg>
