<svg width="24" height="23" viewBox="0 0 24 23" fill="none" xmlns="http://www.w3.org/2000/svg">
<path d="M2.10989 9.23077L0 8.04396C1.31868 5.8022 3.2967 3.82418 5.8022 2.37363C8.43956 0.791209 11.6044 0 14.9011 0C14.9011 0 14.9011 0 15.033 0V2.50549C12.1319 2.50549 9.4945 3.16484 7.12088 4.48352C4.87912 5.8022 3.16484 7.38462 2.10989 9.23077Z" fill="#0D233F"/>
<path d="M8.5714 8.83514L7.38458 6.72525C11.6044 4.35163 16.7472 3.95602 21.3626 5.53844L20.5714 7.7802C16.4835 6.46152 12.1318 6.85712 8.5714 8.83514Z" fill="#135560"/>
<path d="M22.2858 14.2417C20.8352 12.5274 17.8022 10.8132 13.9781 11.3406L13.7143 8.967C15.8242 8.70327 17.8022 8.967 19.6484 9.75821C21.3627 10.4176 22.9451 11.4725 24 12.7912L22.2858 14.2417Z" fill="#721E63"/>
<path d="M20.8351 19.9121C20.4395 17.9341 18.7252 16.2198 16.6154 15.2967L17.5384 13.055C20.4395 14.2418 22.5494 16.6154 23.2088 19.3846L20.8351 19.9121Z" fill="#FFB11D"/>
<path d="M17.1428 22.8131C17.1428 21.6263 16.6154 20.5714 15.5604 19.7802L17.1428 17.934C18.7253 19.2527 19.5165 20.967 19.5165 22.8131H17.1428Z" fill="#DADADA"/>
</svg>
