<svg width="333" height="38" viewBox="0 0 333 38" fill="none" xmlns="http://www.w3.org/2000/svg">
<rect x="0.5" y="0.5" width="332" height="37" rx="7.5" fill="#1A8CCB"/>
<path d="M32.512 22.632C32.5973 22.632 32.672 22.6667 32.736 22.736L33.352 23.4C32.8827 23.944 32.312 24.368 31.64 24.672C30.9733 24.976 30.1653 25.128 29.216 25.128C28.3947 25.128 27.648 24.9867 26.976 24.704C26.304 24.416 25.7307 24.016 25.256 23.504C24.7813 22.9867 24.4133 22.368 24.152 21.648C23.8907 20.928 23.76 20.136 23.76 19.272C23.76 18.408 23.896 17.616 24.168 16.896C24.44 16.176 24.8213 15.5573 25.312 15.04C25.808 14.5227 26.4 14.1227 27.088 13.84C27.776 13.552 28.536 13.408 29.368 13.408C30.184 13.408 30.904 13.5387 31.528 13.8C32.152 14.0613 32.7013 14.416 33.176 14.864L32.664 15.576C32.632 15.6293 32.5893 15.6747 32.536 15.712C32.488 15.744 32.4213 15.76 32.336 15.76C32.24 15.76 32.1227 15.7093 31.984 15.608C31.8453 15.5013 31.664 15.384 31.44 15.256C31.216 15.128 30.936 15.0133 30.6 14.912C30.264 14.8053 29.8507 14.752 29.36 14.752C28.768 14.752 28.2267 14.856 27.736 15.064C27.2453 15.2667 26.8213 15.5627 26.464 15.952C26.112 16.3413 25.8373 16.816 25.64 17.376C25.4427 17.936 25.344 18.568 25.344 19.272C25.344 19.9867 25.4453 20.624 25.648 21.184C25.856 21.744 26.136 22.2187 26.488 22.608C26.8453 22.992 27.264 23.2853 27.744 23.488C28.2293 23.6907 28.752 23.792 29.312 23.792C29.6533 23.792 29.96 23.7733 30.232 23.736C30.5093 23.6933 30.7627 23.6293 30.992 23.544C31.2267 23.4587 31.4427 23.352 31.64 23.224C31.8427 23.0907 32.0427 22.9333 32.24 22.752C32.3307 22.672 32.4213 22.632 32.512 22.632ZM38.0753 16.768C38.6673 16.768 39.2006 16.8667 39.6753 17.064C40.1499 17.2613 40.5553 17.5413 40.8913 17.904C41.2273 18.2667 41.4833 18.7067 41.6593 19.224C41.8406 19.736 41.9313 20.3093 41.9313 20.944C41.9313 21.584 41.8406 22.16 41.6593 22.672C41.4833 23.184 41.2273 23.6213 40.8913 23.984C40.5553 24.3467 40.1499 24.6267 39.6753 24.824C39.2006 25.016 38.6673 25.112 38.0753 25.112C37.4779 25.112 36.9393 25.016 36.4593 24.824C35.9846 24.6267 35.5793 24.3467 35.2433 23.984C34.9073 23.6213 34.6486 23.184 34.4673 22.672C34.2913 22.16 34.2033 21.584 34.2033 20.944C34.2033 20.3093 34.2913 19.736 34.4673 19.224C34.6486 18.7067 34.9073 18.2667 35.2433 17.904C35.5793 17.5413 35.9846 17.2613 36.4593 17.064C36.9393 16.8667 37.4779 16.768 38.0753 16.768ZM38.0753 24C38.8753 24 39.4726 23.7333 39.8673 23.2C40.2619 22.6613 40.4593 21.912 40.4593 20.952C40.4593 19.9867 40.2619 19.2347 39.8673 18.696C39.4726 18.1573 38.8753 17.888 38.0753 17.888C37.6699 17.888 37.3153 17.9573 37.0113 18.096C36.7126 18.2347 36.4619 18.4347 36.2593 18.696C36.0619 18.9573 35.9126 19.28 35.8113 19.664C35.7153 20.0427 35.6673 20.472 35.6673 20.952C35.6673 21.912 35.8646 22.6613 36.2593 23.2C36.6593 23.7333 37.2646 24 38.0753 24ZM45.0814 18.072C45.2574 17.8747 45.444 17.696 45.6414 17.536C45.8387 17.376 46.0467 17.24 46.2654 17.128C46.4894 17.0107 46.724 16.9227 46.9694 16.864C47.22 16.8 47.4894 16.768 47.7774 16.768C48.22 16.768 48.6094 16.8427 48.9454 16.992C49.2867 17.136 49.5694 17.344 49.7934 17.616C50.0227 17.8827 50.196 18.2053 50.3134 18.584C50.4307 18.9627 50.4894 19.3813 50.4894 19.84V25H49.0574V19.84C49.0574 19.2267 48.916 18.752 48.6334 18.416C48.356 18.0747 47.932 17.904 47.3614 17.904C46.94 17.904 46.5454 18.0053 46.1774 18.208C45.8147 18.4107 45.4787 18.6853 45.1694 19.032V25H43.7374V16.896H44.5934C44.796 16.896 44.9214 16.9947 44.9694 17.192L45.0814 18.072ZM60.0699 25H58.6459V18.088H54.4699V22.952C54.4699 23.2933 54.5525 23.5467 54.7179 23.712C54.8832 23.8773 55.0965 23.96 55.3579 23.96C55.5072 23.96 55.6352 23.9413 55.7419 23.904C55.8539 23.8613 55.9499 23.816 56.0299 23.768C56.1099 23.72 56.1765 23.6773 56.2299 23.64C56.2885 23.5973 56.3392 23.576 56.3819 23.576C56.4565 23.576 56.5232 23.6213 56.5819 23.712L56.9979 24.392C56.7525 24.6213 56.4565 24.8027 56.1099 24.936C55.7632 25.064 55.4059 25.128 55.0379 25.128C54.3979 25.128 53.9045 24.9493 53.5579 24.592C53.2165 24.2347 53.0459 23.72 53.0459 23.048V18.088H52.0699C51.9845 18.088 51.9125 18.064 51.8539 18.016C51.7952 17.9627 51.7659 17.8827 51.7659 17.776V17.208L53.0939 17.032L53.4219 14.536C53.4379 14.456 53.4725 14.392 53.5259 14.344C53.5845 14.2907 53.6592 14.264 53.7499 14.264H54.4699V17.056H60.0699V25ZM60.4219 14.296C60.4219 14.4347 60.3925 14.5653 60.3339 14.688C60.2805 14.8053 60.2059 14.9093 60.1099 15C60.0192 15.0907 59.9125 15.1627 59.7899 15.216C59.6672 15.2693 59.5365 15.296 59.3979 15.296C59.2592 15.296 59.1285 15.2693 59.0059 15.216C58.8885 15.1627 58.7845 15.0907 58.6939 15C58.6032 14.9093 58.5312 14.8053 58.4779 14.688C58.4245 14.5653 58.3979 14.4347 58.3979 14.296C58.3979 14.1573 58.4245 14.0267 58.4779 13.904C58.5312 13.776 58.6032 13.6667 58.6939 13.576C58.7845 13.48 58.8885 13.4053 59.0059 13.352C59.1285 13.2987 59.2592 13.272 59.3979 13.272C59.5365 13.272 59.6672 13.2987 59.7899 13.352C59.9125 13.4053 60.0192 13.48 60.1099 13.576C60.2059 13.6667 60.2805 13.776 60.3339 13.904C60.3925 14.0267 60.4219 14.1573 60.4219 14.296ZM63.7533 18.072C63.9293 17.8747 64.1159 17.696 64.3133 17.536C64.5106 17.376 64.7186 17.24 64.9373 17.128C65.1613 17.0107 65.3959 16.9227 65.6413 16.864C65.8919 16.8 66.1613 16.768 66.4493 16.768C66.8919 16.768 67.2813 16.8427 67.6173 16.992C67.9586 17.136 68.2413 17.344 68.4653 17.616C68.6946 17.8827 68.8679 18.2053 68.9853 18.584C69.1026 18.9627 69.1613 19.3813 69.1613 19.84V25H67.7293V19.84C67.7293 19.2267 67.5879 18.752 67.3053 18.416C67.0279 18.0747 66.6039 17.904 66.0333 17.904C65.6119 17.904 65.2173 18.0053 64.8493 18.208C64.4866 18.4107 64.1506 18.6853 63.8413 19.032V25H62.4093V16.896H63.2653C63.4679 16.896 63.5933 16.9947 63.6413 17.192L63.7533 18.072ZM77.9951 16.896V25H77.1471C76.9445 25 76.8165 24.9013 76.7631 24.704L76.6511 23.832C76.2991 24.2213 75.9045 24.536 75.4671 24.776C75.0298 25.0107 74.5285 25.128 73.9631 25.128C73.5205 25.128 73.1285 25.056 72.7871 24.912C72.4511 24.7627 72.1685 24.5547 71.9391 24.288C71.7098 24.0213 71.5365 23.6987 71.4191 23.32C71.3071 22.9413 71.2511 22.5227 71.2511 22.064V16.896H72.6751V22.064C72.6751 22.6773 72.8138 23.152 73.0911 23.488C73.3738 23.824 73.8031 23.992 74.3791 23.992C74.8005 23.992 75.1925 23.8933 75.5551 23.696C75.9231 23.4933 76.2618 23.216 76.5711 22.864V16.896H77.9951ZM85.677 20.064C85.677 19.7333 85.629 19.432 85.533 19.16C85.4423 18.8827 85.3063 18.6453 85.125 18.448C84.949 18.2453 84.733 18.0907 84.477 17.984C84.221 17.872 83.9303 17.816 83.605 17.816C82.9223 17.816 82.381 18.016 81.981 18.416C81.5863 18.8107 81.341 19.36 81.245 20.064H85.677ZM86.829 23.864C86.653 24.0773 86.4423 24.264 86.197 24.424C85.9517 24.5787 85.6877 24.7067 85.405 24.808C85.1277 24.9093 84.8397 24.984 84.541 25.032C84.2423 25.0853 83.9463 25.112 83.653 25.112C83.093 25.112 82.5757 25.0187 82.101 24.832C81.6317 24.64 81.2237 24.3627 80.877 24C80.5357 23.632 80.269 23.1787 80.077 22.64C79.885 22.1013 79.789 21.4827 79.789 20.784C79.789 20.2187 79.8743 19.6907 80.045 19.2C80.221 18.7093 80.4717 18.2853 80.797 17.928C81.1223 17.5653 81.5197 17.2827 81.989 17.08C82.4583 16.872 82.9863 16.768 83.573 16.768C84.0583 16.768 84.5063 16.8507 84.917 17.016C85.333 17.176 85.6903 17.4107 85.989 17.72C86.293 18.024 86.5303 18.4027 86.701 18.856C86.8717 19.304 86.957 19.816 86.957 20.392C86.957 20.616 86.933 20.7653 86.885 20.84C86.837 20.9147 86.7463 20.952 86.613 20.952H81.197C81.213 21.464 81.2823 21.9093 81.405 22.288C81.533 22.6667 81.709 22.984 81.933 23.24C82.157 23.4907 82.4237 23.68 82.733 23.808C83.0423 23.9307 83.389 23.992 83.773 23.992C84.1303 23.992 84.437 23.952 84.693 23.872C84.9543 23.7867 85.1783 23.696 85.365 23.6C85.5517 23.504 85.7063 23.416 85.829 23.336C85.957 23.2507 86.0663 23.208 86.157 23.208C86.2743 23.208 86.365 23.2533 86.429 23.344L86.829 23.864ZM95.2879 25.128C94.6479 25.128 94.1545 24.9493 93.8079 24.592C93.4665 24.2347 93.2959 23.72 93.2959 23.048V18.088H92.3199C92.2345 18.088 92.1625 18.064 92.1039 18.016C92.0452 17.9627 92.0159 17.8827 92.0159 17.776V17.208L93.3439 17.04L93.6719 14.536C93.6879 14.456 93.7225 14.392 93.7759 14.344C93.8345 14.2907 93.9092 14.264 93.9999 14.264H94.7199V17.056H97.0639V18.088H94.7199V22.952C94.7199 23.2933 94.8025 23.5467 94.9679 23.712C95.1332 23.8773 95.3465 23.96 95.6079 23.96C95.7572 23.96 95.8852 23.9413 95.9919 23.904C96.1039 23.8613 96.1999 23.816 96.2799 23.768C96.3599 23.72 96.4265 23.6773 96.4799 23.64C96.5385 23.5973 96.5892 23.576 96.6319 23.576C96.7065 23.576 96.7732 23.6213 96.8319 23.712L97.2479 24.392C97.0025 24.6213 96.7065 24.8027 96.3599 24.936C96.0132 25.064 95.6559 25.128 95.2879 25.128ZM101.903 16.768C102.495 16.768 103.029 16.8667 103.503 17.064C103.978 17.2613 104.383 17.5413 104.719 17.904C105.055 18.2667 105.311 18.7067 105.487 19.224C105.669 19.736 105.759 20.3093 105.759 20.944C105.759 21.584 105.669 22.16 105.487 22.672C105.311 23.184 105.055 23.6213 104.719 23.984C104.383 24.3467 103.978 24.6267 103.503 24.824C103.029 25.016 102.495 25.112 101.903 25.112C101.306 25.112 100.767 25.016 100.287 24.824C99.8127 24.6267 99.4074 24.3467 99.0714 23.984C98.7354 23.6213 98.4767 23.184 98.2954 22.672C98.1194 22.16 98.0314 21.584 98.0314 20.944C98.0314 20.3093 98.1194 19.736 98.2954 19.224C98.4767 18.7067 98.7354 18.2667 99.0714 17.904C99.4074 17.5413 99.8127 17.2613 100.287 17.064C100.767 16.8667 101.306 16.768 101.903 16.768ZM101.903 24C102.703 24 103.301 23.7333 103.695 23.2C104.09 22.6613 104.287 21.912 104.287 20.952C104.287 19.9867 104.09 19.2347 103.695 18.696C103.301 18.1573 102.703 17.888 101.903 17.888C101.498 17.888 101.143 17.9573 100.839 18.096C100.541 18.2347 100.29 18.4347 100.087 18.696C99.89 18.9573 99.7407 19.28 99.6394 19.664C99.5434 20.0427 99.4954 20.472 99.4954 20.952C99.4954 21.912 99.6927 22.6613 100.087 23.2C100.487 23.7333 101.093 24 101.903 24ZM121.931 19.272C121.931 20.1307 121.795 20.912 121.523 21.616C121.251 22.32 120.867 22.9227 120.371 23.424C119.875 23.9253 119.278 24.3147 118.579 24.592C117.886 24.864 117.118 25 116.275 25H111.995V13.536H116.275C117.118 13.536 117.886 13.6747 118.579 13.952C119.278 14.224 119.875 14.6133 120.371 15.12C120.867 15.6213 121.251 16.224 121.523 16.928C121.795 17.632 121.931 18.4133 121.931 19.272ZM120.339 19.272C120.339 18.568 120.243 17.9387 120.051 17.384C119.859 16.8293 119.587 16.36 119.235 15.976C118.883 15.592 118.457 15.2987 117.955 15.096C117.454 14.8933 116.894 14.792 116.275 14.792H113.547V23.744H116.275C116.894 23.744 117.454 23.6427 117.955 23.44C118.457 23.2373 118.883 22.9467 119.235 22.568C119.587 22.184 119.859 21.7147 120.051 21.16C120.243 20.6053 120.339 19.976 120.339 19.272ZM127.138 16.768C127.73 16.768 128.263 16.8667 128.738 17.064C129.212 17.2613 129.618 17.5413 129.954 17.904C130.29 18.2667 130.546 18.7067 130.722 19.224C130.903 19.736 130.994 20.3093 130.994 20.944C130.994 21.584 130.903 22.16 130.722 22.672C130.546 23.184 130.29 23.6213 129.954 23.984C129.618 24.3467 129.212 24.6267 128.738 24.824C128.263 25.016 127.73 25.112 127.138 25.112C126.54 25.112 126.002 25.016 125.522 24.824C125.047 24.6267 124.642 24.3467 124.306 23.984C123.97 23.6213 123.711 23.184 123.53 22.672C123.354 22.16 123.266 21.584 123.266 20.944C123.266 20.3093 123.354 19.736 123.53 19.224C123.711 18.7067 123.97 18.2667 124.306 17.904C124.642 17.5413 125.047 17.2613 125.522 17.064C126.002 16.8667 126.54 16.768 127.138 16.768ZM127.138 24C127.938 24 128.535 23.7333 128.93 23.2C129.324 22.6613 129.522 21.912 129.522 20.952C129.522 19.9867 129.324 19.2347 128.93 18.696C128.535 18.1573 127.938 17.888 127.138 17.888C126.732 17.888 126.378 17.9573 126.074 18.096C125.775 18.2347 125.524 18.4347 125.322 18.696C125.124 18.9573 124.975 19.28 124.874 19.664C124.778 20.0427 124.73 20.472 124.73 20.952C124.73 21.912 124.927 22.6613 125.322 23.2C125.722 23.7333 126.327 24 127.138 24ZM143.851 16.896L141.227 25H140.099C139.96 25 139.864 24.9093 139.811 24.728L138.019 19.232C137.976 19.1093 137.942 18.9867 137.915 18.864C137.888 18.736 137.862 18.6107 137.835 18.488C137.808 18.6107 137.782 18.736 137.755 18.864C137.728 18.9867 137.694 19.112 137.651 19.24L135.827 24.728C135.779 24.9093 135.672 25 135.507 25H134.435L131.811 16.896H132.931C133.043 16.896 133.136 16.9253 133.211 16.984C133.291 17.0427 133.344 17.112 133.371 17.192L134.923 22.408C135.014 22.792 135.086 23.1547 135.139 23.496C135.187 23.32 135.235 23.1413 135.283 22.96C135.336 22.7787 135.392 22.5947 135.451 22.408L137.163 17.16C137.19 17.08 137.235 17.0133 137.299 16.96C137.368 16.9067 137.451 16.88 137.547 16.88H138.171C138.278 16.88 138.366 16.9067 138.435 16.96C138.504 17.0133 138.552 17.08 138.579 17.16L140.251 22.408C140.31 22.5947 140.363 22.7787 140.411 22.96C140.459 23.1413 140.504 23.32 140.547 23.496C140.574 23.32 140.606 23.144 140.643 22.968C140.686 22.7867 140.731 22.6 140.779 22.408L142.363 17.192C142.39 17.1067 142.44 17.0373 142.515 16.984C142.59 16.9253 142.678 16.896 142.779 16.896H143.851ZM146.581 18.072C146.757 17.8747 146.944 17.696 147.141 17.536C147.339 17.376 147.547 17.24 147.765 17.128C147.989 17.0107 148.224 16.9227 148.469 16.864C148.72 16.8 148.989 16.768 149.277 16.768C149.72 16.768 150.109 16.8427 150.445 16.992C150.787 17.136 151.069 17.344 151.293 17.616C151.523 17.8827 151.696 18.2053 151.813 18.584C151.931 18.9627 151.989 19.3813 151.989 19.84V25H150.557V19.84C150.557 19.2267 150.416 18.752 150.133 18.416C149.856 18.0747 149.432 17.904 148.861 17.904C148.44 17.904 148.045 18.0053 147.677 18.208C147.315 18.4107 146.979 18.6853 146.669 19.032V25H145.237V16.896H146.093C146.296 16.896 146.421 16.9947 146.469 17.192L146.581 18.072ZM155.631 13.216V25H154.207V13.216H155.631ZM161.357 16.768C161.949 16.768 162.482 16.8667 162.957 17.064C163.431 17.2613 163.837 17.5413 164.173 17.904C164.509 18.2667 164.765 18.7067 164.941 19.224C165.122 19.736 165.213 20.3093 165.213 20.944C165.213 21.584 165.122 22.16 164.941 22.672C164.765 23.184 164.509 23.6213 164.173 23.984C163.837 24.3467 163.431 24.6267 162.957 24.824C162.482 25.016 161.949 25.112 161.357 25.112C160.759 25.112 160.221 25.016 159.741 24.824C159.266 24.6267 158.861 24.3467 158.525 23.984C158.189 23.6213 157.93 23.184 157.749 22.672C157.573 22.16 157.485 21.584 157.485 20.944C157.485 20.3093 157.573 19.736 157.749 19.224C157.93 18.7067 158.189 18.2667 158.525 17.904C158.861 17.5413 159.266 17.2613 159.741 17.064C160.221 16.8667 160.759 16.768 161.357 16.768ZM161.357 24C162.157 24 162.754 23.7333 163.149 23.2C163.543 22.6613 163.741 21.912 163.741 20.952C163.741 19.9867 163.543 19.2347 163.149 18.696C162.754 18.1573 162.157 17.888 161.357 17.888C160.951 17.888 160.597 17.9573 160.293 18.096C159.994 18.2347 159.743 18.4347 159.541 18.696C159.343 18.9573 159.194 19.28 159.093 19.664C158.997 20.0427 158.949 20.472 158.949 20.952C158.949 21.912 159.146 22.6613 159.541 23.2C159.941 23.7333 160.546 24 161.357 24ZM171.411 21.352C170.755 21.3733 170.195 21.4267 169.731 21.512C169.272 21.592 168.896 21.6987 168.603 21.832C168.315 21.9653 168.104 22.1227 167.971 22.304C167.843 22.4853 167.779 22.688 167.779 22.912C167.779 23.1253 167.813 23.3093 167.883 23.464C167.952 23.6187 168.045 23.7467 168.163 23.848C168.285 23.944 168.427 24.016 168.587 24.064C168.752 24.1067 168.928 24.128 169.115 24.128C169.365 24.128 169.595 24.104 169.803 24.056C170.011 24.0027 170.205 23.928 170.387 23.832C170.573 23.736 170.749 23.6213 170.915 23.488C171.085 23.3547 171.251 23.2027 171.411 23.032V21.352ZM166.811 18.04C167.259 17.608 167.741 17.2853 168.259 17.072C168.776 16.8587 169.349 16.752 169.979 16.752C170.432 16.752 170.835 16.8267 171.187 16.976C171.539 17.1253 171.835 17.3333 172.075 17.6C172.315 17.8667 172.496 18.1893 172.619 18.568C172.741 18.9467 172.803 19.3627 172.803 19.816V25H172.171C172.032 25 171.925 24.9787 171.851 24.936C171.776 24.888 171.717 24.7973 171.675 24.664L171.515 23.896C171.301 24.0933 171.093 24.2693 170.891 24.424C170.688 24.5733 170.475 24.7013 170.251 24.808C170.027 24.9093 169.787 24.9867 169.531 25.04C169.28 25.0987 169 25.128 168.691 25.128C168.376 25.128 168.08 25.0853 167.803 25C167.525 24.9093 167.283 24.776 167.075 24.6C166.872 24.424 166.709 24.2027 166.587 23.936C166.469 23.664 166.411 23.344 166.411 22.976C166.411 22.656 166.499 22.3493 166.675 22.056C166.851 21.7573 167.136 21.4933 167.531 21.264C167.925 21.0347 168.44 20.848 169.075 20.704C169.709 20.5547 170.488 20.4693 171.411 20.448V19.816C171.411 19.1867 171.275 18.712 171.003 18.392C170.731 18.0667 170.333 17.904 169.811 17.904C169.459 17.904 169.163 17.9493 168.923 18.04C168.688 18.1253 168.483 18.224 168.307 18.336C168.136 18.4427 167.987 18.5413 167.859 18.632C167.736 18.7173 167.613 18.76 167.491 18.76C167.395 18.76 167.312 18.736 167.243 18.688C167.173 18.6347 167.115 18.5707 167.067 18.496L166.811 18.04ZM180.252 18.824C179.985 18.4667 179.697 18.2187 179.388 18.08C179.078 17.936 178.732 17.864 178.348 17.864C177.596 17.864 177.017 18.1333 176.612 18.672C176.206 19.2107 176.004 19.9787 176.004 20.976C176.004 21.504 176.049 21.9573 176.14 22.336C176.23 22.7093 176.364 23.0187 176.54 23.264C176.716 23.504 176.932 23.68 177.188 23.792C177.444 23.904 177.734 23.96 178.06 23.96C178.529 23.96 178.937 23.8533 179.284 23.64C179.636 23.4267 179.958 23.1253 180.252 22.736V18.824ZM181.676 13.216V25H180.828C180.625 25 180.497 24.9013 180.444 24.704L180.316 23.72C179.969 24.136 179.574 24.472 179.132 24.728C178.689 24.984 178.177 25.112 177.596 25.112C177.132 25.112 176.71 25.024 176.332 24.848C175.953 24.6667 175.63 24.4027 175.364 24.056C175.097 23.7093 174.892 23.2773 174.748 22.76C174.604 22.2427 174.532 21.648 174.532 20.976C174.532 20.3787 174.612 19.824 174.772 19.312C174.932 18.7947 175.161 18.3467 175.46 17.968C175.758 17.5893 176.124 17.2933 176.556 17.08C176.993 16.8613 177.484 16.752 178.028 16.752C178.524 16.752 178.948 16.8373 179.3 17.008C179.657 17.1733 179.974 17.4053 180.252 17.704V13.216H181.676ZM189.907 14.8V18.808H194.619V20.072H189.907V25H188.355V13.536H195.419V14.8H189.907ZM198.538 16.896V25H197.114V16.896H198.538ZM198.842 14.352C198.842 14.4907 198.813 14.6213 198.754 14.744C198.701 14.8613 198.626 14.968 198.53 15.064C198.44 15.1547 198.33 15.2267 198.202 15.28C198.08 15.3333 197.949 15.36 197.81 15.36C197.672 15.36 197.541 15.3333 197.418 15.28C197.301 15.2267 197.197 15.1547 197.106 15.064C197.016 14.968 196.944 14.8613 196.89 14.744C196.837 14.6213 196.81 14.4907 196.81 14.352C196.81 14.2133 196.837 14.0827 196.89 13.96C196.944 13.832 197.016 13.7227 197.106 13.632C197.197 13.536 197.301 13.4613 197.418 13.408C197.541 13.3547 197.672 13.328 197.81 13.328C197.949 13.328 198.08 13.3547 198.202 13.408C198.33 13.4613 198.44 13.536 198.53 13.632C198.626 13.7227 198.701 13.832 198.754 13.96C198.813 14.0827 198.842 14.2133 198.842 14.352ZM202.35 13.216V25H200.926V13.216H202.35ZM210.083 20.064C210.083 19.7333 210.035 19.432 209.939 19.16C209.849 18.8827 209.713 18.6453 209.531 18.448C209.355 18.2453 209.139 18.0907 208.883 17.984C208.627 17.872 208.337 17.816 208.011 17.816C207.329 17.816 206.787 18.016 206.387 18.416C205.993 18.8107 205.747 19.36 205.651 20.064H210.083ZM211.235 23.864C211.059 24.0773 210.849 24.264 210.603 24.424C210.358 24.5787 210.094 24.7067 209.811 24.808C209.534 24.9093 209.246 24.984 208.947 25.032C208.649 25.0853 208.353 25.112 208.059 25.112C207.499 25.112 206.982 25.0187 206.507 24.832C206.038 24.64 205.63 24.3627 205.283 24C204.942 23.632 204.675 23.1787 204.483 22.64C204.291 22.1013 204.195 21.4827 204.195 20.784C204.195 20.2187 204.281 19.6907 204.451 19.2C204.627 18.7093 204.878 18.2853 205.203 17.928C205.529 17.5653 205.926 17.2827 206.395 17.08C206.865 16.872 207.393 16.768 207.979 16.768C208.465 16.768 208.913 16.8507 209.323 17.016C209.739 17.176 210.097 17.4107 210.395 17.72C210.699 18.024 210.937 18.4027 211.107 18.856C211.278 19.304 211.363 19.816 211.363 20.392C211.363 20.616 211.339 20.7653 211.291 20.84C211.243 20.9147 211.153 20.952 211.019 20.952H205.603C205.619 21.464 205.689 21.9093 205.811 22.288C205.939 22.6667 206.115 22.984 206.339 23.24C206.563 23.4907 206.83 23.68 207.139 23.808C207.449 23.9307 207.795 23.992 208.179 23.992C208.537 23.992 208.843 23.952 209.099 23.872C209.361 23.7867 209.585 23.696 209.771 23.6C209.958 23.504 210.113 23.416 210.235 23.336C210.363 23.2507 210.473 23.208 210.563 23.208C210.681 23.208 210.771 23.2533 210.835 23.344L211.235 23.864ZM229.47 13.536V25H228.11V16.576C228.11 16.464 228.113 16.344 228.118 16.216C228.129 16.088 228.139 15.9573 228.15 15.824L224.214 22.992C224.091 23.232 223.905 23.352 223.654 23.352H223.43C223.179 23.352 222.993 23.232 222.87 22.992L218.854 15.792C218.886 16.0747 218.902 16.336 218.902 16.576V25H217.542V13.536H218.686C218.825 13.536 218.931 13.5493 219.006 13.576C219.081 13.6027 219.153 13.6773 219.222 13.8L223.182 20.856C223.246 20.984 223.307 21.1173 223.366 21.256C223.43 21.3947 223.489 21.536 223.542 21.68C223.595 21.536 223.651 21.3947 223.71 21.256C223.769 21.112 223.833 20.976 223.902 20.848L227.79 13.8C227.854 13.6773 227.923 13.6027 227.998 13.576C228.078 13.5493 228.187 13.536 228.326 13.536H229.47ZM236.223 21.352C235.567 21.3733 235.007 21.4267 234.543 21.512C234.084 21.592 233.708 21.6987 233.415 21.832C233.127 21.9653 232.916 22.1227 232.783 22.304C232.655 22.4853 232.591 22.688 232.591 22.912C232.591 23.1253 232.626 23.3093 232.695 23.464C232.764 23.6187 232.858 23.7467 232.975 23.848C233.098 23.944 233.239 24.016 233.399 24.064C233.564 24.1067 233.74 24.128 233.927 24.128C234.178 24.128 234.407 24.104 234.615 24.056C234.823 24.0027 235.018 23.928 235.199 23.832C235.386 23.736 235.562 23.6213 235.727 23.488C235.898 23.3547 236.063 23.2027 236.223 23.032V21.352ZM231.623 18.04C232.071 17.608 232.554 17.2853 233.071 17.072C233.588 16.8587 234.162 16.752 234.791 16.752C235.244 16.752 235.647 16.8267 235.999 16.976C236.351 17.1253 236.647 17.3333 236.887 17.6C237.127 17.8667 237.308 18.1893 237.431 18.568C237.554 18.9467 237.615 19.3627 237.615 19.816V25H236.983C236.844 25 236.738 24.9787 236.663 24.936C236.588 24.888 236.53 24.7973 236.487 24.664L236.327 23.896C236.114 24.0933 235.906 24.2693 235.703 24.424C235.5 24.5733 235.287 24.7013 235.063 24.808C234.839 24.9093 234.599 24.9867 234.343 25.04C234.092 25.0987 233.812 25.128 233.503 25.128C233.188 25.128 232.892 25.0853 232.615 25C232.338 24.9093 232.095 24.776 231.887 24.6C231.684 24.424 231.522 24.2027 231.399 23.936C231.282 23.664 231.223 23.344 231.223 22.976C231.223 22.656 231.311 22.3493 231.487 22.056C231.663 21.7573 231.948 21.4933 232.343 21.264C232.738 21.0347 233.252 20.848 233.887 20.704C234.522 20.5547 235.3 20.4693 236.223 20.448V19.816C236.223 19.1867 236.087 18.712 235.815 18.392C235.543 18.0667 235.146 17.904 234.623 17.904C234.271 17.904 233.975 17.9493 233.735 18.04C233.5 18.1253 233.295 18.224 233.119 18.336C232.948 18.4427 232.799 18.5413 232.671 18.632C232.548 18.7173 232.426 18.76 232.303 18.76C232.207 18.76 232.124 18.736 232.055 18.688C231.986 18.6347 231.927 18.5707 231.879 18.496L231.623 18.04ZM241.128 18.072C241.304 17.8747 241.491 17.696 241.688 17.536C241.886 17.376 242.094 17.24 242.312 17.128C242.536 17.0107 242.771 16.9227 243.016 16.864C243.267 16.8 243.536 16.768 243.824 16.768C244.267 16.768 244.656 16.8427 244.992 16.992C245.334 17.136 245.616 17.344 245.84 17.616C246.07 17.8827 246.243 18.2053 246.36 18.584C246.478 18.9627 246.536 19.3813 246.536 19.84V25H245.104V19.84C245.104 19.2267 244.963 18.752 244.68 18.416C244.403 18.0747 243.979 17.904 243.408 17.904C242.987 17.904 242.592 18.0053 242.224 18.208C241.862 18.4107 241.526 18.6853 241.216 19.032V25H239.784V16.896H240.64C240.843 16.896 240.968 16.9947 241.016 17.192L241.128 18.072ZM250.21 16.896V25H248.786V16.896H250.21ZM250.514 14.352C250.514 14.4907 250.485 14.6213 250.426 14.744C250.373 14.8613 250.298 14.968 250.202 15.064C250.111 15.1547 250.002 15.2267 249.874 15.28C249.751 15.3333 249.621 15.36 249.482 15.36C249.343 15.36 249.213 15.3333 249.09 15.28C248.973 15.2267 248.869 15.1547 248.778 15.064C248.687 14.968 248.615 14.8613 248.562 14.744C248.509 14.6213 248.482 14.4907 248.482 14.352C248.482 14.2133 248.509 14.0827 248.562 13.96C248.615 13.832 248.687 13.7227 248.778 13.632C248.869 13.536 248.973 13.4613 249.09 13.408C249.213 13.3547 249.343 13.328 249.482 13.328C249.621 13.328 249.751 13.3547 249.874 13.408C250.002 13.4613 250.111 13.536 250.202 13.632C250.298 13.7227 250.373 13.832 250.426 13.96C250.485 14.0827 250.514 14.2133 250.514 14.352ZM253.078 25V18.112L252.182 18.008C252.07 17.9813 251.977 17.9413 251.902 17.888C251.833 17.8293 251.798 17.7467 251.798 17.64V17.056H253.078V16.272C253.078 15.808 253.142 15.3973 253.27 15.04C253.403 14.6773 253.59 14.3733 253.83 14.128C254.075 13.8773 254.369 13.688 254.71 13.56C255.051 13.432 255.435 13.368 255.862 13.368C256.225 13.368 256.558 13.4213 256.862 13.528L256.83 14.24C256.819 14.368 256.747 14.4373 256.614 14.448C256.486 14.4587 256.313 14.464 256.094 14.464C255.849 14.464 255.625 14.496 255.422 14.56C255.225 14.624 255.054 14.728 254.91 14.872C254.766 15.016 254.654 15.2053 254.574 15.44C254.499 15.6747 254.462 15.9653 254.462 16.312V17.056H256.798V18.088H254.51V25H253.078ZM263.318 20.064C263.318 19.7333 263.27 19.432 263.174 19.16C263.083 18.8827 262.947 18.6453 262.766 18.448C262.59 18.2453 262.374 18.0907 262.118 17.984C261.862 17.872 261.571 17.816 261.246 17.816C260.563 17.816 260.022 18.016 259.622 18.416C259.227 18.8107 258.982 19.36 258.886 20.064H263.318ZM264.47 23.864C264.294 24.0773 264.083 24.264 263.838 24.424C263.592 24.5787 263.328 24.7067 263.046 24.808C262.768 24.9093 262.48 24.984 262.182 25.032C261.883 25.0853 261.587 25.112 261.294 25.112C260.734 25.112 260.216 25.0187 259.742 24.832C259.272 24.64 258.864 24.3627 258.518 24C258.176 23.632 257.91 23.1787 257.718 22.64C257.526 22.1013 257.43 21.4827 257.43 20.784C257.43 20.2187 257.515 19.6907 257.686 19.2C257.862 18.7093 258.112 18.2853 258.438 17.928C258.763 17.5653 259.16 17.2827 259.63 17.08C260.099 16.872 260.627 16.768 261.214 16.768C261.699 16.768 262.147 16.8507 262.558 17.016C262.974 17.176 263.331 17.4107 263.63 17.72C263.934 18.024 264.171 18.4027 264.342 18.856C264.512 19.304 264.598 19.816 264.598 20.392C264.598 20.616 264.574 20.7653 264.526 20.84C264.478 20.9147 264.387 20.952 264.254 20.952H258.838C258.854 21.464 258.923 21.9093 259.046 22.288C259.174 22.6667 259.35 22.984 259.574 23.24C259.798 23.4907 260.064 23.68 260.374 23.808C260.683 23.9307 261.03 23.992 261.414 23.992C261.771 23.992 262.078 23.952 262.334 23.872C262.595 23.7867 262.819 23.696 263.006 23.6C263.192 23.504 263.347 23.416 263.47 23.336C263.598 23.2507 263.707 23.208 263.798 23.208C263.915 23.208 264.006 23.2533 264.07 23.344L264.47 23.864ZM271.067 18.232C271.003 18.3493 270.904 18.408 270.771 18.408C270.691 18.408 270.6 18.3787 270.499 18.32C270.397 18.2613 270.272 18.1973 270.123 18.128C269.979 18.0533 269.805 17.9867 269.603 17.928C269.4 17.864 269.16 17.832 268.883 17.832C268.643 17.832 268.427 17.864 268.235 17.928C268.043 17.9867 267.877 18.0693 267.739 18.176C267.605 18.2827 267.501 18.408 267.427 18.552C267.357 18.6907 267.323 18.8427 267.323 19.008C267.323 19.216 267.381 19.3893 267.499 19.528C267.621 19.6667 267.781 19.7867 267.979 19.888C268.176 19.9893 268.4 20.08 268.651 20.16C268.901 20.2347 269.157 20.3173 269.419 20.408C269.685 20.4933 269.944 20.5893 270.195 20.696C270.445 20.8027 270.669 20.936 270.867 21.096C271.064 21.256 271.221 21.4533 271.339 21.688C271.461 21.9173 271.523 22.1947 271.523 22.52C271.523 22.8933 271.456 23.24 271.323 23.56C271.189 23.8747 270.992 24.1493 270.731 24.384C270.469 24.6133 270.149 24.7947 269.771 24.928C269.392 25.0613 268.955 25.128 268.459 25.128C267.893 25.128 267.381 25.0373 266.923 24.856C266.464 24.6693 266.075 24.432 265.755 24.144L266.091 23.6C266.133 23.5307 266.184 23.4773 266.243 23.44C266.301 23.4027 266.376 23.384 266.467 23.384C266.563 23.384 266.664 23.4213 266.771 23.496C266.877 23.5707 267.005 23.6533 267.155 23.744C267.309 23.8347 267.496 23.9173 267.715 23.992C267.933 24.0667 268.205 24.104 268.531 24.104C268.808 24.104 269.051 24.0693 269.259 24C269.467 23.9253 269.64 23.8267 269.779 23.704C269.917 23.5813 270.019 23.44 270.083 23.28C270.152 23.12 270.187 22.9493 270.187 22.768C270.187 22.544 270.125 22.36 270.003 22.216C269.885 22.0667 269.728 21.9413 269.531 21.84C269.333 21.7333 269.107 21.6427 268.851 21.568C268.6 21.488 268.341 21.4053 268.075 21.32C267.813 21.2347 267.555 21.1387 267.299 21.032C267.048 20.92 266.824 20.7813 266.627 20.616C266.429 20.4507 266.269 20.248 266.147 20.008C266.029 19.7627 265.971 19.4667 265.971 19.12C265.971 18.8107 266.035 18.5147 266.163 18.232C266.291 17.944 266.477 17.6933 266.723 17.48C266.968 17.2613 267.269 17.088 267.627 16.96C267.984 16.832 268.392 16.768 268.851 16.768C269.384 16.768 269.861 16.8533 270.283 17.024C270.709 17.1893 271.077 17.4187 271.387 17.712L271.067 18.232ZM275.757 25.128C275.117 25.128 274.623 24.9493 274.277 24.592C273.935 24.2347 273.765 23.72 273.765 23.048V18.088H272.789C272.703 18.088 272.631 18.064 272.573 18.016C272.514 17.9627 272.485 17.8827 272.485 17.776V17.208L273.813 17.04L274.141 14.536C274.157 14.456 274.191 14.392 274.245 14.344C274.303 14.2907 274.378 14.264 274.469 14.264H275.189V17.056H277.533V18.088H275.189V22.952C275.189 23.2933 275.271 23.5467 275.437 23.712C275.602 23.8773 275.815 23.96 276.077 23.96C276.226 23.96 276.354 23.9413 276.461 23.904C276.573 23.8613 276.669 23.816 276.749 23.768C276.829 23.72 276.895 23.6773 276.949 23.64C277.007 23.5973 277.058 23.576 277.101 23.576C277.175 23.576 277.242 23.6213 277.301 23.712L277.717 24.392C277.471 24.6213 277.175 24.8027 276.829 24.936C276.482 25.064 276.125 25.128 275.757 25.128Z" fill="white"/>
<mask id="path-3-inside-1_37_3567" fill="white">
<path d="M290 0H325C329.418 0 333 3.58172 333 8V30C333 34.4183 329.418 38 325 38H290V0Z"/>
</mask>
<path d="M290 0H325C329.418 0 333 3.58172 333 8V30C333 34.4183 329.418 38 325 38H290V0Z" fill="#1A8CCB"/>
<path d="M290 -1H325C329.971 -1 334 3.02944 334 8H332C332 4.13401 328.866 1 325 1H290V-1ZM334 30C334 34.9706 329.971 39 325 39H290V37H325C328.866 37 332 33.866 332 30H334ZM290 38V0V38ZM325 -1C329.971 -1 334 3.02944 334 8V30C334 34.9706 329.971 39 325 39V37C328.866 37 332 33.866 332 30V8C332 4.13401 328.866 1 325 1V-1Z" fill="#1A8CCB" mask="url(#path-3-inside-1_37_3567)"/>
<g clip-path="url(#clip0_37_3567)">
<path d="M312.053 21.2105V13.1053H310.053V21.2105L307.421 18.6842L306.053 20.0527L311 25L315.947 20.0527L314.579 18.6842L312.053 21.2105Z" fill="white"/>
<path d="M317.948 9.10529H304.053C302.369 9.10529 301.105 10.3684 301.105 12.0527V25.9474C301.105 27.6316 302.369 28.8948 304.053 28.8948H317.948C319.632 28.8948 320.895 27.6316 320.895 25.9474V12.0527C320.895 10.3684 319.632 9.10529 317.948 9.10529ZM319 25.9474C319 26.579 318.579 26.8948 318.053 26.8948H304.053C303.421 26.8948 303.105 26.4737 303.105 25.9474V12.0527C303.105 11.4211 303.421 11.1053 304.053 11.1053H317.948C318.579 11.1053 318.895 11.5263 318.895 12.0527V25.9474H319Z" fill="white"/>
</g>
<rect x="0.5" y="0.5" width="332" height="37" rx="7.5" stroke="#1A8CCB"/>
<path d="M301.064 21.7438V13.211H299.043V21.7438L296.383 19.0842L295 20.5248L300 25.7332L305 20.5248L303.617 19.0842L301.064 21.7438Z" fill="white"/>
<path d="M307.021 9H292.979C291.277 9 290 10.3298 290 12.1028V26.7305C290 28.5035 291.277 29.8333 292.979 29.8333H307.021C308.723 29.8333 310 28.5035 310 26.7305V12.1028C310 10.3298 308.723 9 307.021 9ZM308.085 26.7305C308.085 27.3954 307.66 27.7278 307.128 27.7278H292.979C292.34 27.7278 292.021 27.2846 292.021 26.7305V12.1028C292.021 11.4379 292.34 11.1055 292.979 11.1055H307.021C307.66 11.1055 307.979 11.5488 307.979 12.1028V26.7305H308.085Z" fill="white"/>
<defs>
<clipPath id="clip0_37_3567">
<rect width="20" height="20" fill="white" transform="translate(301 9)"/>
</clipPath>
</defs>
</svg>
