<svg width="46" height="42" viewBox="0 0 46 42" fill="none" xmlns="http://www.w3.org/2000/svg">
<rect x="0.5" y="0.5" width="45" height="41" rx="3.5" stroke="#F2F2F2"/>
<path d="M25.6094 29.4867H26.8281C26.9897 29.4867 27.1447 29.4219 27.259 29.3066C27.3733 29.1913 27.4375 29.0349 27.4375 28.8718V17.8043C27.4375 17.6412 27.3733 17.4848 27.259 17.3695C27.1447 17.2542 26.9897 17.1894 26.8281 17.1894H25.6094C25.4478 17.1894 25.2928 17.2542 25.1785 17.3695C25.0642 17.4848 25 17.6412 25 17.8043V28.8718C25 29.0349 25.0642 29.1913 25.1785 29.3066C25.2928 29.4219 25.4478 29.4867 25.6094 29.4867ZM33.9375 12.2705H29.7526L28.0261 9.36525C27.8094 9.00095 27.5029 8.6995 27.1364 8.49027C26.7699 8.28105 26.356 8.17118 25.9349 8.17139H20.8151C20.3942 8.17136 19.9805 8.28131 19.6142 8.49053C19.2479 8.69974 18.9416 9.0011 18.725 9.36525L16.9974 12.2705H12.8125C12.597 12.2705 12.3903 12.3569 12.238 12.5106C12.0856 12.6644 12 12.8729 12 13.0903V13.9101C12 14.1276 12.0856 14.3361 12.238 14.4898C12.3903 14.6436 12.597 14.7299 12.8125 14.7299H13.625V31.9462C13.625 32.5984 13.8818 33.224 14.3389 33.6853C14.796 34.1465 15.416 34.4056 16.0625 34.4056H30.6875C31.334 34.4056 31.954 34.1465 32.4111 33.6853C32.8682 33.224 33.125 32.5984 33.125 31.9462V14.7299H33.9375C34.153 14.7299 34.3597 14.6436 34.512 14.4898C34.6644 14.3361 34.75 14.1276 34.75 13.9101V13.0903C34.75 12.8729 34.6644 12.6644 34.512 12.5106C34.3597 12.3569 34.153 12.2705 33.9375 12.2705ZM20.7262 10.78C20.7534 10.7343 20.7918 10.6966 20.8378 10.6705C20.8837 10.6444 20.9356 10.6307 20.9883 10.6308H25.7617C25.8144 10.6308 25.8661 10.6445 25.912 10.6706C25.9578 10.6968 25.9961 10.7344 26.0232 10.78L26.9099 12.2705H19.8401L20.7262 10.78ZM30.6875 31.9462H16.0625V14.7299H30.6875V31.9462ZM19.9219 29.4867H21.1406C21.3022 29.4867 21.4572 29.4219 21.5715 29.3066C21.6858 29.1913 21.75 29.0349 21.75 28.8718V17.8043C21.75 17.6412 21.6858 17.4848 21.5715 17.3695C21.4572 17.2542 21.3022 17.1894 21.1406 17.1894H19.9219C19.7603 17.1894 19.6053 17.2542 19.491 17.3695C19.3767 17.4848 19.3125 17.6412 19.3125 17.8043V28.8718C19.3125 29.0349 19.3767 29.1913 19.491 29.3066C19.6053 29.4219 19.7603 29.4867 19.9219 29.4867Z" fill="black"/>
</svg>
