<svg width="16" height="17" viewBox="0 0 16 17" fill="none" xmlns="http://www.w3.org/2000/svg">
<g clip-path="url(#clip0_1640_3584)">
<path d="M7.97774 0.579102C12.078 0.579102 15.3761 3.87715 15.3761 7.97743C15.3761 12.0777 12.078 15.3758 7.97774 15.3758C7.04181 15.3758 6.15044 15.1975 5.30365 14.8855L1.24794 16.0889L2.31757 12.7462C1.20337 11.4092 0.623982 9.76016 0.623982 8.022C0.579413 3.87715 3.87746 0.579102 7.97774 0.579102ZM7.97774 1.33676C4.27858 1.33676 1.29251 4.32283 1.29251 8.022C1.29251 9.80473 1.91646 11.2755 3.07524 12.568L2.31757 15.0192L5.34822 14.1278C6.23958 14.4844 7.04181 14.6627 7.97774 14.6627C11.6769 14.6627 14.663 11.6766 14.663 7.97743C14.663 4.27827 11.6769 1.33676 7.97774 1.33676Z" fill="white"/>
<path d="M0.44567 16.8467L1.69358 12.8355C0.623943 11.4539 0.0445557 9.76031 0.0445557 8.02215C0.0445557 5.88287 0.891352 3.92187 2.3621 2.40655C3.87742 0.89123 5.883 0.0444336 7.9777 0.0444336C10.117 0.0444336 12.078 0.846662 13.5933 2.36198C15.1086 3.8773 15.9109 5.8383 15.9109 7.97758C15.9109 10.1169 15.1086 12.0779 13.5933 13.5932C12.078 15.1085 10.117 15.9107 7.9777 15.9107C7.04177 15.9107 6.1504 15.7325 5.25904 15.4205L0.44567 16.8467ZM7.9777 1.82716C4.59052 1.82716 1.82729 4.59039 1.82729 7.97758C1.82729 9.53747 2.3621 10.8745 3.47631 12.167L3.65458 12.3898L3.0752 14.1726L5.30361 13.504L5.48188 13.5932C6.32868 13.9497 7.08634 14.0834 7.93313 14.0834C11.3203 14.0834 14.0836 11.3202 14.0836 7.93301C14.0836 6.28399 13.4596 4.76867 12.3008 3.56533C11.1866 2.49569 9.62673 1.82716 7.9777 1.82716Z" fill="white"/>
<path d="M7.97769 5.88288C8.51251 5.88288 8.9582 5.4372 8.9582 4.90238C8.9582 4.36756 8.51251 3.92188 7.97769 3.92188C7.44287 3.92188 6.99719 4.36756 6.99719 4.90238C6.99719 5.4372 7.44287 5.88288 7.97769 5.88288Z" fill="white"/>
<path d="M8.9136 6.50684H6.2395V7.79931H7.0863V10.8745H6.2395V12.167H9.71582V10.8745H8.9136V6.50684Z" fill="white"/>
</g>
<defs>
<clipPath id="clip0_1640_3584">
<rect width="16" height="16.8914" fill="white"/>
</clipPath>
</defs>
</svg>
