<svg width="24" height="24" viewBox="0 0 18 18" fill="none" xmlns="http://www.w3.org/2000/svg">
<g clip-path="url(#clip0_508_1406)">
<path fill-rule="evenodd" clip-rule="evenodd" d="M12.109 7.6284C12.0272 6.33765 11.5363 5.28891 10.5545 4.40151C9.57264 3.51412 8.50901 3.11075 7.19992 3.19143C5.89083 3.2721 4.90901 3.8368 4.00901 4.80487C3.10901 5.69227 2.69992 6.82168 2.78173 8.11243C2.86355 9.40319 3.35446 10.4519 4.33628 11.3393C5.3181 12.2267 6.38173 12.6301 7.69083 12.5494C8.99992 12.4687 10.0636 11.9847 10.9636 11.0166C11.8636 10.0486 12.1908 8.91916 12.109 7.6284ZM17.9181 16.0183C17.9181 16.341 17.8363 16.6637 17.5908 16.9864C17.3454 17.2284 17.0181 17.3897 16.6908 17.3897C16.2817 17.3897 15.9545 17.3091 15.709 17.0671L11.9454 13.6788C10.7181 14.5662 9.40901 15.0503 7.85446 15.1309C6.79083 15.2116 5.89083 15.0503 4.90901 14.7276C4.00901 14.4049 3.19083 13.9208 2.45446 13.2755C1.79992 12.6301 1.22719 11.904 0.818098 11.0166C0.409007 10.1292 0.163552 9.24185 0.0817338 8.19311C-8.4348e-05 7.14437 0.163552 6.25697 0.572643 5.36958C0.981734 4.48218 1.39082 3.67546 2.04537 2.94941C2.6181 2.30403 3.35446 1.73933 4.25446 1.33596C5.15446 0.932603 6.05446 0.690586 7.1181 0.609914C8.18174 0.529241 9.08173 0.690586 9.98174 1.01327C10.8817 1.33596 11.6999 1.82 12.4363 2.46538C13.0908 3.11075 13.6636 3.8368 14.1545 4.7242C14.6454 5.61159 14.809 6.49899 14.8908 7.54773C14.9726 9.0805 14.5636 10.4519 13.8272 11.7427L17.5908 15.1309C17.7545 15.2923 17.9181 15.615 17.9181 16.0183Z" fill="#0B3557"/>
</g>
<defs>
<clipPath id="clip0_508_1406">
<rect width="18" height="16.9412" fill="white" transform="translate(0 0.529297)"/>
</clipPath>
</defs>
</svg>
