<svg width="27" height="17" viewBox="0 0 27 17" fill="none" xmlns="http://www.w3.org/2000/svg">
<path d="M26.5596 9.11271C26.2214 9.11271 25.9098 9.11803 25.5956 9.10472C25.5477 9.10472 25.4758 9.01684 25.4651 8.96092C25.2228 7.73066 24.6609 6.68147 23.7262 5.83999C23.0578 5.23818 22.2749 4.88135 21.3909 4.74288C21.1565 4.7056 20.9222 4.68962 20.6426 4.65766C20.9648 5.38198 21.2577 6.07699 21.3403 6.88119C20.9382 6.88119 20.5654 6.88918 20.1925 6.8732C20.1419 6.8732 20.0727 6.7587 20.0541 6.6868C19.8544 5.90923 19.5774 5.16362 19.1354 4.4899C18.0809 2.87618 16.6349 1.81368 14.7336 1.40892C13.9587 1.24382 13.1864 1.23583 12.3982 1.36099C10.7339 1.62461 9.34386 2.36224 8.24674 3.64576C8.19881 3.70168 8.1562 3.7576 8.09762 3.83216C9.81786 4.30083 11.0215 5.38464 11.9508 6.85989C11.8869 6.87054 11.8497 6.88119 11.8124 6.88119C11.5461 6.88119 11.2771 6.85989 11.0135 6.88652C10.7525 6.91315 10.6034 6.8013 10.449 6.60958C9.84981 5.86396 9.10153 5.32073 8.20147 4.99585C5.95132 4.18899 3.42422 5.0358 2.08477 6.97972C1.46432 7.87978 1.12346 8.87837 1.05689 9.95685C0.918421 12.2123 2.15667 14.4652 4.24173 15.4158C6.04718 16.2386 7.7834 16.0469 9.41576 14.9312C9.91905 14.5876 10.3691 14.1802 10.7073 13.661C10.7951 13.5278 10.9043 13.4772 11.0668 13.4825C11.3863 13.4959 11.7059 13.4852 12.076 13.4852C11.7405 14.1216 11.3144 14.6516 10.8724 15.1708C11.3144 15.7114 13.9001 15.8499 15.3354 15.4105C17.3086 14.8087 19.6626 12.5345 19.7851 11.0912C19.7106 11.0912 19.636 11.0912 19.5641 11.0912C17.7959 11.0912 16.0278 11.0912 14.2596 11.0912C14.0803 11.0912 13.9897 11.0007 13.988 10.8196C13.988 10.588 13.988 10.3563 13.9826 10.1246C13.98 10.0021 14.0306 9.94886 14.1504 9.94886C14.3821 9.94886 14.6138 9.93555 14.8454 9.93555C16.9758 9.93555 19.1034 9.93555 21.2337 9.93555C21.287 9.93555 21.3403 9.94353 21.4228 9.94886C20.9382 12.0845 19.9902 13.9193 18.2353 15.3013C18.7812 15.5676 19.3351 15.746 19.9209 15.7886C21.9261 15.9377 23.4493 15.075 24.6263 13.5092C24.9245 13.1097 25.1908 12.689 25.3293 12.2017C25.3453 12.1484 25.4118 12.0712 25.4571 12.0712C25.7953 12.0605 26.1335 12.0659 26.5036 12.0659C26.4637 12.1884 26.4371 12.2789 26.4051 12.3668C25.9498 13.645 25.2467 14.7634 24.1656 15.5996C23.0419 16.4703 21.7796 17.0002 20.331 16.9496C19.2445 16.9124 18.2193 16.6328 17.2767 16.0762C17.1728 16.015 17.1116 16.0176 17.005 16.0762C16.2355 16.4996 15.4206 16.7899 14.5419 16.907C13.1492 17.0908 11.7964 16.9496 10.4889 16.4251C10.3052 16.3505 10.1188 16.2786 9.951 16.1801C9.77259 16.0735 9.63145 16.1082 9.46369 16.204C9.21604 16.3452 8.95774 16.4703 8.69677 16.5848C7.86062 16.955 6.9792 17.0428 6.07647 16.9976C4.36422 16.915 2.94223 16.1987 1.79718 14.9578C0.705389 13.7621 0.0796053 12.3508 0.00770683 10.7105C-0.0721804 8.87038 0.393828 7.20607 1.62675 5.81337C2.53481 4.78548 3.64258 4.03454 5.00598 3.74162C5.46134 3.6431 5.93534 3.60848 6.40401 3.5925C6.649 3.58451 6.80345 3.51528 6.94458 3.31822C7.68487 2.293 8.62754 1.49413 9.73797 0.900302C11.1653 0.138711 12.6938 -0.132906 14.3049 0.0614863C16.6189 0.341092 18.4084 1.51277 19.8197 3.31556C19.9476 3.478 20.0541 3.55788 20.2671 3.53924C21.1858 3.46202 22.0619 3.6431 22.8768 4.06384C24.1443 4.71625 25.1615 5.64028 25.8512 6.90249C26.2001 7.54159 26.4317 8.2233 26.5596 8.93962C26.5675 8.99021 26.5596 9.04613 26.5596 9.11803V9.11271Z" fill="white"/>
</svg>
