<svg id="Layer_1" data-name="Layer 1" xmlns="http://www.w3.org/2000/svg" viewBox="0 0 37.5 37.5"><defs><style>.cls-1{fill:#cf6b28;}.cls-2{fill:#fff;fill-rule:evenodd;}.cls-3{fill:#c1bcbb;}</style></defs><circle class="cls-1" cx="18.75" cy="18.75" r="16.17"/><path class="cls-2" d="M32,26.91l-2-2c-5.18-5.44-5.18-7.41-6.42-14.58-.25-1.23-1.23-7.9-2.72-3.7a8.76,8.76,0,0,0-1,2.72c-.5,1-1.49.74-2.47,1-1.49.25-1.49,1-3.22,1H10.5c-1.24.25-1.73,1.24-1,2.47a6.17,6.17,0,0,0,3.71,2.47c1.23.5,3.21.25,3.21,2S15.19,21.74,15,23.71a14.12,14.12,0,0,0,1.48,8.4,9.7,9.7,0,0,1,.49,2,14.24,14.24,0,0,0,2.08.16A15.2,15.2,0,0,0,32,26.91Z" transform="translate(-0.25 -0.27)"/><path class="cls-3" d="M19,1.27A17.75,17.75,0,1,1,1.25,19,17.77,17.77,0,0,1,19,1.27m0-1A18.75,18.75,0,1,0,37.75,19,18.74,18.74,0,0,0,19,.27Z" transform="translate(-0.25 -0.27)"/></svg>